<?xml version="1.0" encoding="UTF-8"?>
<svg version="1.1" xmlns="http://www.w3.org/2000/svg" width="697" height="697">
<path d="M0 0 C230.01 0 460.02 0 697 0 C697 230.01 697 460.02 697 697 C466.99 697 236.98 697 0 697 C0 466.99 0 236.98 0 0 Z " fill="#FEFEFE" transform="translate(0,0)"/>
<path d="M0 0 C4.91441412 1.43652105 9.00238358 3.54159615 13.375 6.125 C14.01566406 6.49753906 14.65632813 6.87007813 15.31640625 7.25390625 C16.88048477 8.16434002 18.44065534 9.08148191 20 10 C20 10.66 20 11.32 20 12 C20.53753906 12.08507812 21.07507813 12.17015625 21.62890625 12.2578125 C49.90054182 21.10725362 73.57671543 57.64878936 86.6875 82.25 C93.42803116 95.24959581 98.32861777 108.47097088 101.8125 122.6875 C102.00763184 123.4815625 102.20276367 124.275625 102.40380859 125.09375 C105.480041 138.53903057 106.38355523 152.00285705 106.3125 165.75 C106.30976578 166.85868942 106.30976578 166.85868942 106.30697632 167.98977661 C106.25785971 179.87103604 105.59419838 191.3771742 103 203 C102.83371094 203.76699219 102.66742187 204.53398438 102.49609375 205.32421875 C98.16776133 224.72156031 90.74517757 242.73231343 81 260 C79.9791462 261.8541554 78.95830847 263.70831964 77.9375 265.5625 C77.298125 266.696875 76.65875 267.83125 76 269 C75.34 269 74.68 269 74 269 C73.76667969 269.52980469 73.53335937 270.05960938 73.29296875 270.60546875 C71.59918093 273.74230239 69.48875925 276.50212313 67.3125 279.3125 C66.86624268 279.89064453 66.41998535 280.46878906 65.96020508 281.06445312 C62.58932618 285.37239395 58.99220672 289.2602279 55 293 C52.57959976 295.38926969 50.19386827 297.7900059 47.88671875 300.2890625 C41.25291367 307.33527109 33.85570994 312.53369268 25.79150391 317.81494141 C23.53493927 319.30763216 21.33600318 320.87840895 19.125 322.4375 C15.47403164 324.85307453 11.74627611 326.48455378 7.6484375 328.00390625 C4.81869999 329.06818806 2.07845476 330.28016204 -0.6875 331.5 C-19.87314771 339.49401988 -40.45778126 341.17019192 -61.02734375 341.1328125 C-62.8144149 341.13424759 -62.8144149 341.13424759 -64.6375885 341.13571167 C-67.13754327 341.13638707 -69.63749985 341.13457786 -72.13745117 341.13037109 C-75.92435723 341.12501858 -79.71114446 341.13033564 -83.49804688 341.13671875 C-116.85248674 341.14852981 -145.7240361 336.79869806 -175 320 C-175.6707959 319.61763184 -176.3415918 319.23526367 -177.03271484 318.84130859 C-178.68967922 317.89631136 -180.34501455 316.94845867 -182 316 C-182 315.34 -182 314.68 -182 314 C-182.85078125 313.61134766 -182.85078125 313.61134766 -183.71875 313.21484375 C-215.93588279 296.05811721 -240.35858904 254.97149548 -250.87890625 221.1171875 C-264.98031114 170.77479467 -259.95626052 120.03471556 -235 74 C-231.98228202 68.76936472 -228.61046165 63.83642253 -225 59 C-224.33484375 58.10595459 -224.33484375 58.10595459 -223.65625 57.19384766 C-215.42019013 46.229008 -206.64356175 35.71319864 -196 27 C-194.95689423 26.10953549 -193.91393875 25.21889489 -192.87109375 24.328125 C-166.97617658 2.58055268 -166.97617658 2.58055268 -154.70703125 0.63671875 C-150.90204474 1.14734464 -147.96205606 2.92805853 -144.6875 4.8125 C-137.66278973 8.70276945 -131.10997371 11.59606699 -123.2265625 13.46484375 C-120.4932369 14.12180096 -117.77821059 14.83620531 -115.0625 15.5625 C-114.12535156 15.81128906 -113.18820312 16.06007813 -112.22265625 16.31640625 C-110 17 -110 17 -109 18 C-82.68790562 22.66937426 -54.31944951 21.70356077 -29 13 C-27.1128125 12.505 -27.1128125 12.505 -25.1875 12 C-21.96067567 10.98766295 -19.23395929 9.64297466 -16.25390625 8.07421875 C-12.7552372 6.40674217 -9.09613964 5.23610795 -5.41796875 4.02734375 C-2.98367778 2.99306503 -1.69976813 1.99341578 0 0 Z " fill="#EB2127" transform="translate(419,331)"/>
<path d="M0 0 C2.83147968 0.90266721 5.65644904 1.81614038 8.47265625 2.765625 C27.04808147 8.49078418 46.35995545 8.14149823 64.37890625 0.67578125 C66.92977436 -0.29875815 68.07686533 -0.10550127 70.59765625 0.828125 C70.59765625 1.488125 70.59765625 2.148125 70.59765625 2.828125 C72.57765625 3.818125 72.57765625 3.818125 74.59765625 4.828125 C74.59765625 5.488125 74.59765625 6.148125 74.59765625 6.828125 C75.46583984 6.95574219 75.46583984 6.95574219 76.3515625 7.0859375 C79.23360613 8.03826496 80.48347518 9.48487181 82.53515625 11.703125 C84.6379749 13.96898525 86.41322444 15.71787318 89.07421875 17.30859375 C91.87316487 18.99402725 93.79373187 20.89634754 96.03515625 23.265625 C98.54824127 25.84932563 100.7029788 27.89763789 103.72265625 29.890625 C109.74259694 33.94754155 113.6214449 39.86380797 117.59765625 45.828125 C118.38140625 46.59125 119.16515625 47.354375 119.97265625 48.140625 C125.29181957 53.58643507 129.00893168 59.36111953 130.59765625 66.828125 C131.25765625 66.828125 131.91765625 66.828125 132.59765625 66.828125 C144.23192126 99.00495969 148.89471251 130.53146173 134.59765625 162.828125 C124.1653236 184.64318184 106.6817594 202.41545258 83.75 210.64453125 C82.01479442 211.23566887 80.27637093 211.81742911 78.53515625 212.390625 C77.15686646 212.84622803 77.15686646 212.84622803 75.75073242 213.31103516 C68.10929003 215.77627435 60.54538926 217.61213158 52.59765625 218.828125 C51.78167969 218.95832031 50.96570313 219.08851563 50.125 219.22265625 C19.68120012 223.13909706 -15.59545624 216.53938541 -40.40234375 197.828125 C-61.1473234 181.20312732 -73.17162726 156.98753809 -76.40234375 130.828125 C-76.68057817 126.57322268 -76.73622487 122.34126448 -76.71484375 118.078125 C-76.71137939 116.94576416 -76.70791504 115.81340332 -76.7043457 114.64672852 C-76.48533065 97.67608724 -72.03385949 83.31539157 -65.40234375 67.828125 C-65.04914063 66.961875 -64.6959375 66.095625 -64.33203125 65.203125 C-62.53372096 60.89850824 -60.92285093 57.99658146 -57.40234375 54.828125 C-56.16722296 52.69503308 -56.16722296 52.69503308 -55.40234375 50.828125 C-54.74234375 50.828125 -54.08234375 50.828125 -53.40234375 50.828125 C-53.15484375 50.291875 -52.90734375 49.755625 -52.65234375 49.203125 C-51.09581838 46.2457268 -49.36798702 43.53088449 -47.40234375 40.828125 C-46.74234375 40.828125 -46.08234375 40.828125 -45.40234375 40.828125 C-45.3353125 40.27382812 -45.26828125 39.71953125 -45.19921875 39.1484375 C-44.07410098 35.87235929 -42.10098589 34.13003363 -39.65234375 31.703125 C-38.79125 30.83429688 -37.93015625 29.96546875 -37.04296875 29.0703125 C-34.49671837 26.90825966 -32.49729952 25.95700067 -29.40234375 24.828125 C-28.310681 22.89481897 -28.310681 22.89481897 -27.40234375 20.828125 C-23.97377232 17.828125 -23.97377232 17.828125 -21.40234375 17.828125 C-21.40234375 17.168125 -21.40234375 16.508125 -21.40234375 15.828125 C-19.50390625 14.1015625 -19.50390625 14.1015625 -17.02734375 12.203125 C-15.80917969 11.25566406 -15.80917969 11.25566406 -14.56640625 10.2890625 C-12.40234375 8.828125 -12.40234375 8.828125 -10.40234375 8.828125 C-10.40234375 8.168125 -10.40234375 7.508125 -10.40234375 6.828125 C-8.828125 5.06640625 -8.828125 5.06640625 -6.71484375 3.140625 C-6.03035156 2.49738281 -5.34585938 1.85414062 -4.640625 1.19140625 C-2.40234375 -0.171875 -2.40234375 -0.171875 0 0 Z " fill="#EB2127" transform="translate(309.40234375,109.171875)"/>
<path d="M0 0 C0 0.66 0 1.32 0 2 C0.598125 2.04125 1.19625 2.0825 1.8125 2.125 C4 3 4 3 5.75 5.875 C7 9 7 9 7 12 C7.66 12 8.32 12 9 12 C10.29146413 15.93589067 10.14724266 19.90735132 10.125 24 C10.12886719 24.7115625 10.13273437 25.423125 10.13671875 26.15625 C10.13033978 29.57538017 10.07200732 32.73293006 9 36 C8.34 36 7.68 36 7 36 C6.938125 36.78375 6.87625 37.5675 6.8125 38.375 C4.54032758 48.51238464 -2.17572755 59.20523708 -10 66 C-10.721875 66.350625 -11.44375 66.70125 -12.1875 67.0625 C-14.17892157 67.86702161 -14.17892157 67.86702161 -15 70 C-16.26776456 72.53552912 -17.46823065 72.84919575 -20 74 C-20.42023438 74.45246094 -20.84046875 74.90492187 -21.2734375 75.37109375 C-25.06855535 78.95155561 -30.31621532 80.81142796 -35 83 C-35.68449219 83.32484375 -36.36898438 83.6496875 -37.07421875 83.984375 C-43.66862653 86.78807115 -53.13961066 89.28679645 -60 87 C-58.58226538 83.45566346 -57.32387762 82.66193881 -54 81 C-53.505 80.01 -53.505 80.01 -53 79 C-51.75491604 76.50983207 -50.53283204 76.01313282 -48 75 C-48 74.34 -48 73.68 -48 73 C-47.34 73 -46.68 73 -46 73 C-45.62294922 71.92492187 -45.62294922 71.92492187 -45.23828125 70.828125 C-43.88895475 67.74638245 -42.22889879 65.41982174 -40.1875 62.75 C-36.67014927 58.02816487 -33.68773091 53.23332221 -31 48 C-30.34 48 -29.68 48 -29 48 C-28.67 45.69 -28.34 43.38 -28 41 C-27.34 41 -26.68 41 -26 41 C-24.11958397 28.40792836 -23.33128922 17.53340958 -26 5 C-26.99 4.67 -27.98 4.34 -29 4 C-29 3.34 -29 2.68 -29 2 C-19.98940258 -4.75794807 -10.0684738 -4.55930889 0 0 Z " fill="#E92128" transform="translate(380,11)"/>
<path d="M0 0 C-0.67226653 4.39494243 -2.21792991 8.27056917 -4 12.3125 C-4.45379028 13.34842285 -4.45379028 13.34842285 -4.91674805 14.40527344 C-7.90309573 21.05897334 -11.42351109 27.36902179 -15.08203125 33.671875 C-16.47607484 36.09086714 -17.7987638 38.48312414 -19 41 C-19.66 41 -20.32 41 -21 41 C-21.23332031 41.52980469 -21.46664062 42.05960938 -21.70703125 42.60546875 C-23.40081907 45.74230239 -25.51124075 48.50212313 -27.6875 51.3125 C-28.13375732 51.89064453 -28.58001465 52.46878906 -29.03979492 53.06445312 C-32.41067382 57.37239395 -36.00779328 61.2602279 -40 65 C-42.42040024 67.38926969 -44.80613173 69.7900059 -47.11328125 72.2890625 C-53.74708633 79.33527109 -61.14429006 84.53369268 -69.20849609 89.81494141 C-71.46506073 91.30763216 -73.66399682 92.87840895 -75.875 94.4375 C-79.52596836 96.85307453 -83.25372389 98.48455378 -87.3515625 100.00390625 C-90.18130001 101.06818806 -92.92154524 102.28016204 -95.6875 103.5 C-114.87314771 111.49401988 -135.45778126 113.17019192 -156.02734375 113.1328125 C-157.8144149 113.13424759 -157.8144149 113.13424759 -159.6375885 113.13571167 C-162.13754327 113.13638707 -164.63749985 113.13457786 -167.13745117 113.13037109 C-170.92435723 113.12501858 -174.71114446 113.13033564 -178.49804688 113.13671875 C-209.08884973 113.14755119 -209.08884973 113.14755119 -222.625 110.375 C-223.86636719 110.12375366 -223.86636719 110.12375366 -225.1328125 109.86743164 C-249.62935766 104.58951448 -249.62935766 104.58951448 -257 98 C-251.96488175 98.28500669 -248.24965125 99.1922466 -243.6875 101.375 C-227.9986453 108.82237699 -210.54573911 109.31965174 -193.45703125 109.30078125 C-191.94870388 109.30468465 -190.44037758 109.30902258 -188.93205261 109.31376648 C-185.81037786 109.3211338 -182.68881648 109.32100288 -179.56713867 109.31567383 C-175.57839212 109.3098198 -171.59010104 109.32699696 -167.60142994 109.3500185 C-164.50354838 109.36475915 -161.40577746 109.36562833 -158.30786705 109.36250877 C-156.83633187 109.36301947 -155.3647901 109.36820961 -153.89328957 109.37832069 C-151.84367504 109.39070728 -149.7949622 109.38388699 -147.74536133 109.37231445 C-146.00359367 109.37325859 -146.00359367 109.37325859 -144.22663879 109.3742218 C-140.60056463 108.95367395 -138.22746591 107.63858349 -135 106 C-132.65880445 106.63850788 -130.32548007 107.30643577 -128 108 C-125.64828869 107.40138258 -123.3140622 106.73075648 -121 106 C-119.04158183 106 -117.08268645 106.00115701 -115.125 106.0546875 C-110.42564924 105.93374833 -105.38475209 105.38475209 -102 102 C-98.10879026 100.70293009 -95.12193682 100 -91 100 C-91 99.34 -91 98.68 -91 98 C-90.38511719 97.81824219 -89.77023437 97.63648438 -89.13671875 97.44921875 C-88.32847656 97.19785156 -87.52023437 96.94648437 -86.6875 96.6875 C-85.88699219 96.44386719 -85.08648437 96.20023438 -84.26171875 95.94921875 C-81.87696243 94.94836247 -80.72410521 93.88589808 -79 92 C-77.66666667 91.33333333 -76.33333333 90.66666667 -75 90 C-74.525625 89.46375 -74.05125 88.9275 -73.5625 88.375 C-72 87 -72 87 -69.3125 86.8125 C-68.1678125 86.9053125 -68.1678125 86.9053125 -67 87 C-66.67 86.01 -66.34 85.02 -66 84 C-64.01310269 82.64721885 -62.01254782 81.31431695 -60 80 C-59.01 78.515 -59.01 78.515 -58 77 C-57.01 76.7834375 -57.01 76.7834375 -56 76.5625 C-55.34 76.376875 -54.68 76.19125 -54 76 C-53.30062468 74.68352881 -52.63270867 73.34977849 -52 72 C-51.01 71.67 -50.02 71.34 -49 71 C-48.67 70.34 -48.34 69.68 -48 69 C-47.34 69 -46.68 69 -46 69 C-46 68.34 -46 67.68 -46 67 C-44.37373596 65.61767557 -42.7074998 64.28062485 -41 63 C-41.33 62.34 -41.66 61.68 -42 61 C-41.401875 60.7525 -40.80375 60.505 -40.1875 60.25 C-37.86706787 59.12019611 -37.86706787 59.12019611 -36.4375 56.875 C-35.963125 56.25625 -35.48875 55.6375 -35 55 C-34.01 55 -33.02 55 -32 55 C-31.8453125 54.0409375 -31.8453125 54.0409375 -31.6875 53.0625 C-31.3471875 52.0415625 -31.3471875 52.0415625 -31 51 C-30.01 50.67 -29.02 50.34 -28 50 C-28 49.01 -28 48.02 -28 47 C-27.34 47 -26.68 47 -26 47 C-25.8453125 46.1028125 -25.8453125 46.1028125 -25.6875 45.1875 C-25 43 -25 43 -23.5 41.625 C-21.36072601 39.30745317 -21.340489 37.06440101 -21 34 C-20.01 34 -19.02 34 -18 34 C-17.01 29.545 -17.01 29.545 -16 25 C-15.01 25.33 -14.02 25.66 -13 26 C-12.80664062 25.37351562 -12.61328125 24.74703125 -12.4140625 24.1015625 C-12.15367187 23.28429687 -11.89328125 22.46703125 -11.625 21.625 C-11.36976563 20.81289063 -11.11453125 20.00078125 -10.8515625 19.1640625 C-10 17 -10 17 -8 15 C-8.33 14.01 -8.66 13.02 -9 12 C-8.328125 9.84375 -8.328125 9.84375 -7.25 7.5 C-6.90453125 6.7265625 -6.5590625 5.953125 -6.203125 5.15625 C-3.32608696 0 -3.32608696 0 0 0 Z " fill="#C92C32" transform="translate(514,559)"/>
<path d="M0 0 C0.33 0 0.66 0 1 0 C0.54334142 4.56658579 0.17334433 7.94309058 -2 12 C-2 13.32 -2 14.64 -2 16 C-3.12433206 19.54597034 -4.38630676 21.44312618 -7 24 C-8.04831914 25.22704021 -9.06833392 26.47868788 -10.0625 27.75 C-10.56910156 28.38421875 -11.07570312 29.0184375 -11.59765625 29.671875 C-13.40415499 32.67096483 -14.11320091 35.61662999 -15 39 C-15.81942273 41.54756426 -16.64921343 44.08810915 -17.5 46.625 C-17.71269531 47.26695312 -17.92539063 47.90890625 -18.14453125 48.5703125 C-19.05163044 51.28604504 -19.97882608 53.95130737 -21.12109375 56.578125 C-22.1720322 59.47404428 -22.38164525 62.05431717 -22.5625 65.125 C-22.76108519 68.37531274 -22.96713663 70.90140989 -24 74 C-25.38359899 85.22252511 -24.99793504 96.53753689 -24.6875 107.8125 C-24.67044006 108.52069885 -24.65338013 109.22889771 -24.63580322 109.95855713 C-24.4329417 118.00028517 -23.91761756 125.83016138 -22.41333008 133.7487793 C-22 136 -22 136 -22 138 C-21.34 138 -20.68 138 -20 138 C-19.87882813 138.80824219 -19.75765625 139.61648438 -19.6328125 140.44921875 C-19.46523437 141.51785156 -19.29765625 142.58648438 -19.125 143.6875 C-18.96257812 144.74324219 -18.80015625 145.79898438 -18.6328125 146.88671875 C-18.03985506 149.80392297 -17.11346165 152.25346127 -16 155 C-15.875 158.3125 -15.875 158.3125 -16 161 C-32.9964917 135.50526244 -30.07197641 90.14802276 -24.78588867 61.75561523 C-20.47254041 40.63377834 -12.92499068 17.47645467 0 0 Z " fill="#BA3137" transform="translate(188,399)"/>
<path d="M0 0 C2.83147968 0.90266721 5.65644904 1.81614038 8.47265625 2.765625 C27.04808147 8.49078418 46.35995545 8.14149823 64.37890625 0.67578125 C66.92977436 -0.29875815 68.07686533 -0.10550127 70.59765625 0.828125 C70.59765625 1.488125 70.59765625 2.148125 70.59765625 2.828125 C71.91765625 3.488125 73.23765625 4.148125 74.59765625 4.828125 C74.59765625 5.488125 74.59765625 6.148125 74.59765625 6.828125 C75.190625 6.91964844 75.78359375 7.01117188 76.39453125 7.10546875 C79.12300282 8.00044613 80.06890666 9.16718801 81.84765625 11.390625 C82.3684375 12.03128906 82.88921875 12.67195313 83.42578125 13.33203125 C83.8125 13.82574219 84.19921875 14.31945312 84.59765625 14.828125 C82.28515625 14.640625 82.28515625 14.640625 79.59765625 13.828125 C78.59122875 12.16533173 77.59180218 10.49829016 76.59765625 8.828125 C73.53084826 7.00182706 73.53084826 7.00182706 70.59765625 5.828125 C70.59765625 5.168125 70.59765625 4.508125 70.59765625 3.828125 C69.13842932 3.94222093 67.68025027 4.06978044 66.22265625 4.203125 C65.00449219 4.30753906 65.00449219 4.30753906 63.76171875 4.4140625 C61.39431434 4.65705088 61.39431434 4.65705088 59.59765625 6.828125 C54.76727999 9.05752943 50.38784194 8.9684251 45.18359375 8.80078125 C42.68703595 8.72419198 42.68703595 8.72419198 40.69140625 9.31860352 C33.51764037 11.06436487 26.05713084 9.39247791 18.97265625 7.953125 C18.0703125 7.77910156 17.16796875 7.60507813 16.23828125 7.42578125 C12.31392411 6.65349522 8.44875142 5.83023353 4.61328125 4.69140625 C1.29858095 3.74250888 -0.20689164 3.56676232 -3.40234375 4.828125 C-6.06901042 7.16145833 -6.06901042 7.16145833 -8.40234375 9.828125 C-10.58471424 12.17837014 -11.24402753 12.77535293 -14.40234375 13.828125 C-15.39234375 15.313125 -15.39234375 15.313125 -16.40234375 16.828125 C-17.06234375 16.828125 -17.72234375 16.828125 -18.40234375 16.828125 C-18.40234375 17.818125 -18.40234375 18.808125 -18.40234375 19.828125 C-19.72234375 19.828125 -21.04234375 19.828125 -22.40234375 19.828125 C-22.73234375 20.818125 -23.06234375 21.808125 -23.40234375 22.828125 C-28.77377232 26.828125 -28.77377232 26.828125 -31.40234375 26.828125 C-31.40234375 27.488125 -31.40234375 28.148125 -31.40234375 28.828125 C-32.39234375 29.488125 -33.38234375 30.148125 -34.40234375 30.828125 C-35.39234375 30.498125 -36.38234375 30.168125 -37.40234375 29.828125 C-31.65234375 24.828125 -31.65234375 24.828125 -29.40234375 24.828125 C-29.15484375 24.23 -28.90734375 23.631875 -28.65234375 23.015625 C-27.2216185 20.51185581 -25.83318555 19.34740112 -23.40234375 17.828125 C-22.74234375 17.828125 -22.08234375 17.828125 -21.40234375 17.828125 C-21.40234375 17.168125 -21.40234375 16.508125 -21.40234375 15.828125 C-19.50390625 14.1015625 -19.50390625 14.1015625 -17.02734375 12.203125 C-16.21523438 11.57148437 -15.403125 10.93984375 -14.56640625 10.2890625 C-12.40234375 8.828125 -12.40234375 8.828125 -10.40234375 8.828125 C-10.40234375 8.168125 -10.40234375 7.508125 -10.40234375 6.828125 C-8.828125 5.06640625 -8.828125 5.06640625 -6.71484375 3.140625 C-6.03035156 2.49738281 -5.34585938 1.85414062 -4.640625 1.19140625 C-2.40234375 -0.171875 -2.40234375 -0.171875 0 0 Z " fill="#C4343B" transform="translate(309.40234375,109.171875)"/>
<path d="M0 0 C0.99 0.33 1.98 0.66 3 1 C1.71034824 2.37562854 0.37310707 3.70766393 -1 5 C-1.66 5 -2.32 5 -3 5 C-3.2475 5.61875 -3.495 6.2375 -3.75 6.875 C-5.23954094 9.4072196 -6.37581048 9.80718658 -9 11 C-9.42023438 11.45246094 -9.84046875 11.90492187 -10.2734375 12.37109375 C-14.06855535 15.95155561 -19.31621532 17.81142796 -24 20 C-24.68449219 20.32484375 -25.36898438 20.6496875 -26.07421875 20.984375 C-32.66862653 23.78807115 -42.13961066 26.28679645 -49 24 C-47.58226538 20.45566346 -46.32387762 19.66193881 -43 18 C-42.67 17.34 -42.34 16.68 -42 16 C-40.75491604 13.50983207 -39.53283204 13.01313282 -37 12 C-37 11.34 -37 10.68 -37 10 C-36.34 10 -35.68 10 -35 10 C-34.71125 9.195625 -34.4225 8.39125 -34.125 7.5625 C-33 5 -33 5 -31 4 C-31.31856451 6.00240549 -31.65421232 8.00211562 -32 10 C-32.103125 10.7425 -32.20625 11.485 -32.3125 12.25 C-33.26725483 14.68028502 -34.69971006 14.92173909 -37 16 C-37.33 16.99 -37.66 17.98 -38 19 C-37.01 19.33 -36.02 19.66 -35 20 C-34.34 18.35 -33.68 16.7 -33 15 C-32.34 15.66 -31.68 16.32 -31 17 C-26.82731088 17.44416897 -26.82731088 17.44416897 -23.125 15.75 C-21.63949494 13.78595012 -21.63949494 13.78595012 -22 10 C-21.34 9.67 -20.68 9.34 -20 9 C-20.33 10.32 -20.66 11.64 -21 13 C-19.35 13 -17.7 13 -16 13 C-16 12.34 -16 11.68 -16 11 C-15.01 11 -14.02 11 -13 11 C-12.34 9.68 -11.68 8.36 -11 7 C-9.68 7 -8.36 7 -7 7 C-7 6.34 -7 5.68 -7 5 C-7.66 4.67 -8.32 4.34 -9 4 C-5.86501708 2.14223235 -3.62528568 1.79859524 0 2 C0 1.34 0 0.68 0 0 Z " fill="#D22F35" transform="translate(369,74)"/>
<path d="M0 0 C9.40491914 9.40491914 10.27557459 31.90532729 10.375 44.4375 C10.14424248 70.60112039 2.25043732 94.08859097 -15 114 C-15.61328125 112.12109375 -15.61328125 112.12109375 -16 110 C-14.71182656 108.62298702 -13.37195574 107.29355827 -12 106 C-10.74563813 103.36777038 -10.74563813 103.36777038 -10 101 C-9.01 101 -8.02 101 -7 101 C-6.67 99.02 -6.34 97.04 -6 95 C-5.34 95 -4.68 95 -4 95 C-4 93.02 -4 91.04 -4 89 C-3.01 89 -2.02 89 -1 89 C-1.04125 88.21625 -1.0825 87.4325 -1.125 86.625 C-1 84 -1 84 1 82 C2.55402302 78.63181702 3.41238547 75.41661807 4.03515625 71.76953125 C4.20466797 70.80208984 4.37417969 69.83464844 4.54882812 68.83789062 C4.71833984 67.83951172 4.88785156 66.84113281 5.0625 65.8125 C5.40479517 63.81853519 5.7497166 61.82501887 6.09765625 59.83203125 C6.24726807 58.95264893 6.39687988 58.0732666 6.55102539 57.16723633 C7 55 7 55 8 53 C7.93508218 48.76132095 7.5233915 44.537421 7.1875 40.3125 C7.0627832 38.55389648 7.0627832 38.55389648 6.93554688 36.75976562 C6.48115567 30.88584718 5.79508398 25.60306548 4 20 C3.92596322 17.66784156 3.90484114 15.33139212 4 13 C3.34 13 2.68 13 2 13 C-0.28571429 4.57142857 -0.28571429 4.57142857 0 0 Z " fill="#C32E38" transform="translate(443,182)"/>
<path d="M0 0 C0.63164062 0.06058594 1.26328125 0.12117187 1.9140625 0.18359375 C3.81808354 0.36192425 5.72268921 0.5340688 7.62768555 0.70166016 C9.65656367 0.8811497 11.68483741 1.06800897 13.71166992 1.26928711 C25.43445706 2.29257442 37.18032445 2.15038455 48.93823242 2.13037109 C52.66133749 2.12503748 56.3843206 2.13032716 60.10742188 2.13671875 C73.43808082 2.14004917 86.69834769 1.90205072 100 1 C93.03355338 7.96644662 72.30341884 5.22626196 63.16830444 5.23342896 C60.60364833 5.22751777 58.03899786 5.21827672 55.47436523 5.20581055 C51.51865336 5.18729476 47.56317302 5.18530316 43.60742188 5.18554688 C41.09374796 5.18063987 38.58007563 5.17481516 36.06640625 5.16796875 C34.29167686 5.16629951 34.29167686 5.16629951 32.48109436 5.16459656 C31.39493332 5.15821671 30.30877228 5.15183685 29.18969727 5.14526367 C27.75437401 5.13954597 27.75437401 5.13954597 26.29005432 5.13371277 C24 5 24 5 22 4 C19.79438208 3.81764576 17.58510398 3.67844764 15.375 3.5625 C9.98444591 3.21865807 5.16416309 2.54924893 0 1 C0 0.67 0 0.34 0 0 Z " fill="#FEDEE2" transform="translate(290,669)"/>
<path d="M0 0 C1.40907283 2.81814566 0.50872691 4.17277204 -0.4375 7.125 C-0.72496094 8.03507813 -1.01242188 8.94515625 -1.30859375 9.8828125 C-1.65083984 10.93082031 -1.65083984 10.93082031 -2 12 C-1.34 12.33 -0.68 12.66 0 13 C0 16 0 16 -2 19 C-3.415081 25.3430385 -3.22221147 31.7935983 -3.24023438 38.2578125 C-3.24994179 40.36238111 -3.28101852 42.46597223 -3.3125 44.5703125 C-3.3688702 51.75913991 -2.98547413 57.42458538 0 64 C0.85282456 67.66146011 1.55401173 71.33020881 2.25390625 75.0234375 C2.75297151 78.09561563 2.75297151 78.09561563 5 80 C5.125 82.625 5.125 82.625 5 85 C1.70196518 81.2983251 0.44949309 77.12492004 -1.0625 72.5 C-1.31837891 71.76007813 -1.57425781 71.02015625 -1.83789062 70.2578125 C-5.32773772 59.74341458 -6.36784597 49.2853265 -6.3125 38.25 C-6.30903564 37.11763916 -6.30557129 35.98527832 -6.30200195 34.81860352 C-6.14480858 22.63828834 -4.29368419 11.4498245 0 0 Z " fill="#BC2D34" transform="translate(239,189)"/>
<path d="M0 0 C5.03511825 0.28500669 8.75034875 1.1922466 13.3125 3.375 C36.26037387 14.31453439 63.08840977 13.16688341 87.875 13.5625 C90.41276634 13.60577396 92.95052685 13.64939081 95.48828125 13.69335938 C101.65879255 13.79952928 107.82936246 13.90145505 114 14 C114 14.33 114 14.66 114 15 C106.28109452 15.02556466 98.56220014 15.04295612 90.84326172 15.05493164 C88.22281486 15.05992942 85.60237074 15.06672986 82.98193359 15.07543945 C79.19367796 15.08770619 75.40545952 15.09327402 71.6171875 15.09765625 C70.46451385 15.10281754 69.31184021 15.10797882 68.12423706 15.11329651 C56.80040937 15.1140601 45.49184644 14.65201564 34.375 12.375 C33.54742187 12.20750244 32.71984375 12.04000488 31.8671875 11.86743164 C7.37064234 6.58951448 7.37064234 6.58951448 0 0 Z " fill="#AC3B3F" transform="translate(257,657)"/>
<path d="M0 0 C0.66 0 1.32 0 2 0 C2.63016731 37.1120069 2.63016731 37.1120069 -1 54 C-1.14405273 54.68433105 -1.28810547 55.36866211 -1.43652344 56.07373047 C-2.21863976 59.73513442 -3.06707956 63.37418157 -4 67 C-4.33 67 -4.66 67 -5 67 C-5.22960803 61.00467915 -4.82839858 55.65037241 -3.51171875 49.8046875 C-2.50054389 44.26252302 -2.30761889 38.61809228 -2 33 C-1.34 33 -0.68 33 0 33 C0 22.11 0 11.22 0 0 Z " fill="#B92E32" transform="translate(523,480)"/>
<path d="M0 0 C0.33 0 0.66 0 1 0 C1.144375 1.2375 1.28875 2.475 1.4375 3.75 C1.78688502 6.56504499 2.20379366 9.2701497 3 12 C1.35 12.33 -0.3 12.66 -2 13 C-2.33 15.31 -2.66 17.62 -3 20 C-6 21 -6 21 -9 21 C-9.268125 21.7425 -9.53625 22.485 -9.8125 23.25 C-10.94229421 25.86636554 -12.20893202 27.80187111 -14 30 C-13.67 30.66 -13.34 31.32 -13 32 C-21 36 -21 36 -23.203125 36.9453125 C-25.344721 37.93735504 -25.344721 37.93735504 -26 41 C-28.375 42.25 -28.375 42.25 -31 43 C-31.99 42.67 -32.98 42.34 -34 42 C-33.030625 41.731875 -32.06125 41.46375 -31.0625 41.1875 C-29.5465625 40.5996875 -29.5465625 40.5996875 -28 40 C-27.67 39.01 -27.34 38.02 -27 37 C-25.34151823 35.98648336 -23.67334039 34.98879205 -22 34 C-19.50640491 31.68451884 -17.31837433 29.43629076 -15.3125 26.6875 C-14.879375 26.130625 -14.44625 25.57375 -14 25 C-13.34 25 -12.68 25 -12 25 C-11.59394531 23.89011719 -11.59394531 23.89011719 -11.1796875 22.7578125 C-10.05715049 20.13360345 -8.80597339 18.16565286 -7.125 15.875 C-3.71376943 10.91701046 -1.81337804 5.70680736 0 0 Z " fill="#F3CFCF" transform="translate(387,47)"/>
<path d="M0 0 C2.52259061 1.97420135 2.9929808 2.96745642 3.6875 6.1875 C3.790625 7.115625 3.89375 8.04375 4 9 C4.66 9 5.32 9 6 9 C7.29146413 12.93589067 7.14724266 16.90735132 7.125 21 C7.13080078 22.06734375 7.13080078 22.06734375 7.13671875 23.15625 C7.13033978 26.57538017 7.07200732 29.73293006 6 33 C5.34 33 4.68 33 4 33 C3.938125 33.78375 3.87625 34.5675 3.8125 35.375 C2.0058939 43.43524258 -2.71733954 51.66369414 -8 58 C-9.485 58.495 -9.485 58.495 -11 59 C-10 55 -10 55 -9 51 C-8.01 51 -7.02 51 -6 51 C-5.731875 50.236875 -5.46375 49.47375 -5.1875 48.6875 C-4 46 -4 46 -2.53125 44.78125 C-0.21269251 42.08415251 0.02198046 39.26686332 0.6875 35.8125 C1.06455078 33.90404297 1.06455078 33.90404297 1.44921875 31.95703125 C1.63097656 30.98121094 1.81273437 30.00539063 2 29 C2.99 29 3.98 29 5 29 C4.60610365 17.68287261 4.60610365 17.68287261 1.69921875 6.80859375 C0.83873855 4.58288239 0.3793111 2.35172883 0 0 Z " fill="#BF323A" transform="translate(383,14)"/>
<path d="M0 0 C0.33 0 0.66 0 1 0 C1.19491452 1.45736087 1.38069358 2.91594593 1.5625 4.375 C1.66691406 5.18710937 1.77132813 5.99921875 1.87890625 6.8359375 C2 9 2 9 1 11 C1.99 11.33 2.98 11.66 4 12 C3.46375 12.721875 2.9275 13.44375 2.375 14.1875 C0.64088949 16.93706631 0.64088949 16.93706631 1.8125 19.8125 C2.204375 20.534375 2.59625 21.25625 3 22 C2.01 22.66 1.02 23.32 0 24 C0 23.34 0 22.68 0 22 C-0.66 22 -1.32 22 -2 22 C-3.50930183 25.3863251 -3.50930183 25.3863251 -4 29 C-4.99 29 -5.98 29 -7 29 C-7 29.66 -7 30.32 -7 31 C-8.62626404 32.38232443 -10.2925002 33.71937515 -12 35 C-12.66 34.67 -13.32 34.34 -14 34 C-12.88407791 31.99492073 -11.75701288 29.99603904 -10.625 28 C-9.99851562 26.88625 -9.37203125 25.7725 -8.7265625 24.625 C-7.87191406 23.325625 -7.87191406 23.325625 -7 22 C-6.34 22 -5.68 22 -5 22 C-4.67 19.69 -4.34 17.38 -4 15 C-3.34 15 -2.68 15 -2 15 C-1.34 10.05 -0.68 5.1 0 0 Z " fill="#D72934" transform="translate(356,37)"/>
<path d="M0 0 C-0.67224954 4.39483136 -2.2175379 8.2708018 -4 12.3125 C-4.30325195 13.00311523 -4.60650391 13.69373047 -4.91894531 14.40527344 C-9.03406242 23.55779018 -13.72166429 33.13221221 -20 41 C-21 36.25 -21 36.25 -21 34 C-20.01 34 -19.02 34 -18 34 C-17.34 31.03 -16.68 28.06 -16 25 C-15.01 25.33 -14.02 25.66 -13 26 C-12.80664062 25.37351562 -12.61328125 24.74703125 -12.4140625 24.1015625 C-12.15367187 23.28429687 -11.89328125 22.46703125 -11.625 21.625 C-11.36976563 20.81289063 -11.11453125 20.00078125 -10.8515625 19.1640625 C-10 17 -10 17 -8 15 C-8.33 14.01 -8.66 13.02 -9 12 C-8.328125 9.84375 -8.328125 9.84375 -7.25 7.5 C-6.73179687 6.33984375 -6.73179687 6.33984375 -6.203125 5.15625 C-3.32608696 0 -3.32608696 0 0 0 Z " fill="#CE2B33" transform="translate(514,559)"/>
<path d="M0 0 C1.485 0.99 1.485 0.99 3 2 C3.125 5.4375 3.125 5.4375 3 9 C3.33 9.99 3.66 10.98 4 12 C4.11400952 13.51834207 4.17612677 15.04089591 4.20532227 16.56323242 C4.22526749 17.48396042 4.24521271 18.40468842 4.26576233 19.35331726 C4.28247482 20.34402725 4.29918732 21.33473724 4.31640625 22.35546875 C4.33718735 23.37224197 4.35796844 24.3890152 4.37937927 25.43659973 C4.44480048 28.68683063 4.50372537 31.93714277 4.5625 35.1875 C4.60569227 37.38998238 4.64930679 39.59245653 4.69335938 41.79492188 C4.80047427 47.19652853 4.90225457 52.59821612 5 58 C3.02 58.495 3.02 58.495 1 59 C1.00785522 57.17178711 1.00785522 57.17178711 1.01586914 55.30664062 C1.03421531 50.70687621 1.04553818 46.1071149 1.05493164 41.50732422 C1.05990514 39.53108167 1.06668631 37.5548427 1.07543945 35.57861328 C1.12678652 23.67213411 0.94912034 11.87309948 0 0 Z " fill="#FDD4D7" transform="translate(523,464)"/>
<path d="M0 0 C1.14363785 3.43091356 0.82030724 4.43453753 -0.14453125 7.83203125 C-0.54043457 9.26518677 -0.54043457 9.26518677 -0.94433594 10.72729492 C-1.23083008 11.7454126 -1.51732422 12.76353027 -1.8125 13.8125 C-6.63541914 31.74721499 -7.80444189 49.51305796 -9 68 C-9.33 68 -9.66 68 -10 68 C-10.02497729 64.0347593 -10.0429894 60.06954995 -10.05493164 56.10424805 C-10.06235104 54.10268542 -10.07506659 52.10114467 -10.08789062 50.09960938 C-10.10502051 43.29904483 -9.86705791 36.74224228 -9 30 C-9.061875 28.1128125 -9.061875 28.1128125 -9.125 26.1875 C-8.98097652 22.51490122 -8.18646005 21.79866887 -6 19 C-5.62599214 16.67284 -5.29235267 14.33882138 -5 12 C-4.649375 11.319375 -4.29875 10.63875 -3.9375 9.9375 C-2.76592676 7.88973439 -2.76592676 7.88973439 -3.0625 4.875 C-3.041875 3.92625 -3.02125 2.9775 -3 2 C-2.01 1.34 -1.02 0.68 0 0 Z " fill="#FAD6D6" transform="translate(169,436)"/>
<path d="M0 0 C2.53345606 1.1943841 4.89471927 2.42111558 7.3125 3.8125 C15.03076898 8.08686077 22.37357276 10.99743653 31 13 C30.67 13.66 30.34 14.32 30 15 C22.34546184 13.22776703 15.19928068 11.560537 8.4375 7.4375 C2.34945286 3.84711323 -3.12007337 3.75525953 -10 4 C-10.33 5.32 -10.66 6.64 -11 8 C-13.31 8.33 -15.62 8.66 -18 9 C-18.33 10.65 -18.66 12.3 -19 14 C-19.5775 13.814375 -20.155 13.62875 -20.75 13.4375 C-23.20692525 12.95976454 -24.64397534 13.24270636 -27 14 C-23.35992339 9.77790572 -18.87359237 7.40865988 -14.0625 4.75 C-13.26392578 4.29109375 -12.46535156 3.8321875 -11.64257812 3.359375 C-10.86462891 2.92625 -10.08667969 2.493125 -9.28515625 2.046875 C-8.23146851 1.45664551 -8.23146851 1.45664551 -7.15649414 0.85449219 C-4.57709138 -0.16757389 -2.75501269 -0.25941481 0 0 Z " fill="#BB3F45" transform="translate(267,332)"/>
<path d="M0 0 C5.34844008 0.53484401 9.35796103 2.46690767 14 5 C14 5.66 14 6.32 14 7 C14.8353125 6.6596875 14.8353125 6.6596875 15.6875 6.3125 C18.96925222 5.86901997 20.25329729 7.2114494 23 9 C28.21319266 11.40608892 33.53413336 13.25240998 39 15 C39 14.34 39 13.68 39 13 C42 14 42 14 45 16 C47.0492094 16.45139459 47.0492094 16.45139459 49.1875 16.625 C50.445625 16.74875 51.70375 16.8725 53 17 C52.67 17.66 52.34 18.32 52 19 C46.39628512 19.23750845 41.59433709 18.44406556 36.1875 17 C35.36725342 16.78214844 34.54700684 16.56429688 33.7019043 16.33984375 C21.94584192 13.04873077 9.95840072 8.17818736 0 1 C0 0.67 0 0.34 0 0 Z " fill="#C24A52" transform="translate(272,308)"/>
<path d="M0 0 C9.09422094 0.73984064 18.15474295 0.67590069 27.2734375 0.62890625 C28.99218618 0.62387592 30.7109363 0.61931576 32.4296875 0.61523438 C36.58597401 0.60436235 40.7421892 0.58718429 44.8984375 0.56640625 C44.8984375 0.89640625 44.8984375 1.22640625 44.8984375 1.56640625 C44.1353125 1.69015625 43.3721875 1.81390625 42.5859375 1.94140625 C39.69576614 2.44743417 39.69576614 2.44743417 36.8984375 4.56640625 C33.72802734 4.80932617 33.72802734 4.80932617 29.859375 4.796875 C29.17791412 4.79641678 28.49645325 4.79595856 27.79434204 4.79548645 C26.35701756 4.79246993 24.91969617 4.78460155 23.48242188 4.7722168 C21.27462279 4.75391608 19.06724215 4.75170748 16.859375 4.75195312 C6.0459181 4.71388685 6.0459181 4.71388685 4.8984375 3.56640625 C1.68823773 3.33014155 -1.51430122 3.16980323 -4.73046875 3.04882812 C-6.52570189 2.95716401 -8.31542197 2.76880769 -10.1015625 2.56640625 C-10.4315625 1.90640625 -10.7615625 1.24640625 -11.1015625 0.56640625 C-7.20779398 -0.40232459 -3.98286274 -0.38781614 0 0 Z " fill="#C55053" transform="translate(320.1015625,350.43359375)"/>
<path d="M0 0 C1.04736328 -0.00902344 2.09472656 -0.01804687 3.17382812 -0.02734375 C4.16318359 -0.02347656 5.15253906 -0.01960938 6.171875 -0.015625 C7.05456055 -0.01336914 7.93724609 -0.01111328 8.84667969 -0.00878906 C11.40198923 0.26636617 13.04574078 0.9617301 15.25 2.25 C6.59194024 3.58752096 -1.91785822 4.44447318 -10.6875 4.4375 C-11.83859253 4.4384668 -11.83859253 4.4384668 -13.01293945 4.43945312 C-18.31736467 4.38912542 -23.48614128 3.90340848 -28.75 3.25 C-28.75 2.92 -28.75 2.59 -28.75 2.25 C-19.14480927 0.66796859 -9.73282333 0.03524257 0 0 Z " fill="#CB4950" transform="translate(352.75,324.75)"/>
<path d="M0 0 C0.33 0 0.66 0 1 0 C0.54334142 4.56658579 0.17334433 7.94309058 -2 12 C-2 13.32 -2 14.64 -2 16 C-3.11614139 19.52013823 -4.32082609 21.51928342 -7 24 C-8.69935049 25.97409578 -10.34552706 27.98780319 -12 30 C-13 28 -13 28 -12.29296875 25.828125 C-11.92816406 24.97734375 -11.56335938 24.1265625 -11.1875 23.25 C-10.03411621 20.53517607 -8.96511369 17.8881849 -8.0859375 15.0703125 C-6.87590133 11.64913109 -5.28343176 8.74651299 -3.4375 5.625 C-2.81746094 4.56539063 -2.19742188 3.50578125 -1.55859375 2.4140625 C-0.78708984 1.21910156 -0.78708984 1.21910156 0 0 Z " fill="#E1232A" transform="translate(188,399)"/>
<path d="M0 0 C1.65 0 3.3 0 5 0 C1.90206674 3.94282415 -1.6243489 5.23926492 -6.17578125 6.93359375 C-9.06395835 8.02415025 -11.86343809 9.25375405 -14.6875 10.5 C-25.83675074 15.13122723 -36.94277555 17.59334825 -49 18 C-49 17.67 -49 17.34 -49 17 C-48.22285645 16.82871582 -47.44571289 16.65743164 -46.64501953 16.48095703 C-43.13661132 15.70323625 -39.63082724 14.91427001 -36.125 14.125 C-34.90167969 13.85558594 -33.67835938 13.58617187 -32.41796875 13.30859375 C-31.25136719 13.04433594 -30.08476562 12.78007813 -28.8828125 12.5078125 C-27.80402832 12.26691895 -26.72524414 12.02602539 -25.61376953 11.77783203 C-22.86956397 11.18692835 -22.86956397 11.18692835 -21 9 C-17.10879026 7.70293009 -14.12193682 7 -10 7 C-10 6.34 -10 5.68 -10 5 C-9.04287109 4.70996094 -9.04287109 4.70996094 -8.06640625 4.4140625 C-7.24011719 4.15367187 -6.41382813 3.89328125 -5.5625 3.625 C-4.73878906 3.36976563 -3.91507812 3.11453125 -3.06640625 2.8515625 C-0.82201984 2.19117773 -0.82201984 2.19117773 0 0 Z " fill="#B8363B" transform="translate(433,652)"/>
<path d="M0 0 C3.3 0 6.6 0 10 0 C7.03468117 2.22398912 5.31772352 3.44851694 2.05859375 4.71875 C1.31504639 5.00999756 0.57149902 5.30124512 -0.19458008 5.60131836 C-0.97599365 5.8978833 -1.75740723 6.19444824 -2.5625 6.5 C-3.36518311 6.80752197 -4.16786621 7.11504395 -4.99487305 7.43188477 C-20.36080015 13.22985203 -20.36080015 13.22985203 -28 13 C-26.52883203 10.05766405 -24.17404609 9.66202197 -21.2109375 8.59765625 C-18.02384809 7.73612855 -15.28479071 7.79470058 -12 8 C-12 7.01 -12 6.02 -12 5 C-11.38511719 4.86722656 -10.77023437 4.73445313 -10.13671875 4.59765625 C-9.32847656 4.42105469 -8.52023437 4.24445313 -7.6875 4.0625 C-6.88699219 3.88847656 -6.08648437 3.71445312 -5.26171875 3.53515625 C-2.854599 3.00113841 -2.854599 3.00113841 0 2 C0 1.34 0 0.68 0 0 Z " fill="#C93742" transform="translate(396,313)"/>
<path d="M0 0 C3.34753133 3.25959268 6.39521871 6.60206508 9.3125 10.25 C13.39840459 15.30253638 17.63728238 20.18555685 22 25 C21.34 25.66 20.68 26.32 20 27 C20 26.34 20 25.68 20 25 C19.34 25 18.68 25 18 25 C18 24.34 18 23.68 18 23 C17.01 23 16.02 23 15 23 C14.938125 22.21625 14.87625 21.4325 14.8125 20.625 C14.544375 19.75875 14.27625 18.8925 14 18 C11.57616923 16.83046584 11.57616923 16.83046584 9 16 C8.34 15.01 7.68 14.02 7 13 C5.68 13.33 4.36 13.66 3 14 C3.33 12.02 3.66 10.04 4 8 C1.03 7.505 1.03 7.505 -2 7 C-2.66 5.02 -3.32 3.04 -4 1 C-3.01 1.33 -2.02 1.66 -1 2 C-0.67 1.34 -0.34 0.68 0 0 Z " fill="#F7E6E5" transform="translate(192,601)"/>
<path d="M0 0 C1.5 1.375 1.5 1.375 3 3 C3 3.66 3 4.32 3 5 C2.360625 5.103125 1.72125 5.20625 1.0625 5.3125 C0.0415625 5.6528125 0.0415625 5.6528125 -1 6 C-1.33 6.99 -1.66 7.98 -2 9 C-2.99 9 -3.98 9 -5 9 C-5.103125 9.639375 -5.20625 10.27875 -5.3125 10.9375 C-5.539375 11.618125 -5.76625 12.29875 -6 13 C-6.99 13.33 -7.98 13.66 -9 14 C-9 14.66 -9 15.32 -9 16 C-12.82444243 19.64232612 -15.80474854 21.6393389 -21 23 C-21 22.01 -21 21.02 -21 20 C-19.6015625 18.74609375 -19.6015625 18.74609375 -17.625 17.4375 C-10.90773469 12.65997975 -4.7881526 6.72510753 0 0 Z " fill="#FAE7E7" transform="translate(433,289)"/>
<path d="M0 0 C4.63540475 2.25506177 5.86796096 4.39479567 8 9 C8.94906966 10.60155505 9.93054838 12.18419023 10.9375 13.75 C11.42089844 14.50796875 11.90429688 15.2659375 12.40234375 16.046875 C14.11726524 18.14335603 15.51368792 18.99043916 18 20 C18 20.66 18 21.32 18 22 C18.763125 22.28875 19.52625 22.5775 20.3125 22.875 C23 24 23 24 26 26 C25.01 26.66 24.02 27.32 23 28 C13.04669414 20.79973619 4.54234082 12.08468164 -1 1 C-0.67 0.67 -0.34 0.34 0 0 Z " fill="#BE3B40" transform="translate(248,280)"/>
<path d="M0 0 C0.66 0 1.32 0 2 0 C2.01981934 0.70906494 2.03963867 1.41812988 2.06005859 2.14868164 C2.62603222 21.65415446 2.62603222 21.65415446 5 41 C4.34 41 3.68 41 3 41 C0.71632356 34.60570596 -0.12766819 28.85301051 -0.09765625 22.0703125 C-0.09443359 20.78125 -0.09121094 19.4921875 -0.08789062 18.1640625 C-0.07953733 16.81770764 -0.07107241 15.47135348 -0.0625 14.125 C-0.0574783 12.75520996 -0.05291657 11.38541815 -0.04882812 10.015625 C-0.03707254 6.6770381 -0.02063964 3.33854185 0 0 Z " fill="#F5D4D5" transform="translate(231,214)"/>
<path d="M0 0 C8.16099844 7.83455851 16.58704035 16.65908964 19 28 C19.66 28 20.32 28 21 28 C21.33 29.98 21.66 31.96 22 34 C20.62437146 32.71034824 19.29233607 31.37310707 18 30 C18 29.34 18 28.68 18 28 C17.34 28 16.68 28 16 28 C15.67 25.69 15.34 23.38 15 21 C14.01 21 13.02 21 12 21 C11.28385417 19.27473958 10.56770833 17.54947917 9.8515625 15.82421875 C8.93193308 13.73466068 8.93193308 13.73466068 7 11 C6.01 10.67 5.02 10.34 4 10 C2 7 2 7 2 3 C1.34 3 0.68 3 0 3 C0 2.01 0 1.02 0 0 Z " fill="#C2484D" transform="translate(421,148)"/>
<path d="M0 0 C1.40765625 -0.00386719 1.40765625 -0.00386719 2.84375 -0.0078125 C5.2214263 0.11107132 7.22683096 0.44948278 9.5 1.125 C9.17 2.445 8.84 3.765 8.5 5.125 C8.025625 4.63 7.55125 4.135 7.0625 3.625 C3.27208579 1.40622095 -0.20652439 1.55100594 -4.5 2.125 C-7.48244913 3.2603673 -7.48244913 3.2603673 -9.5 5.125 C-10.83204395 8.01358797 -10.83204395 8.01358797 -9.5703125 10.29296875 C-8.16123985 14.02135442 -8.28387756 17.51573025 -8.375 21.4375 C-8.38402344 22.17806641 -8.39304687 22.91863281 -8.40234375 23.68164062 C-8.42575787 25.49623467 -8.46162385 27.31066071 -8.5 29.125 C-8.83 29.125 -9.16 29.125 -9.5 29.125 C-9.63277344 28.11179687 -9.76554687 27.09859375 -9.90234375 26.0546875 C-10.08067584 24.70311796 -10.25906425 23.35155586 -10.4375 22 C-10.52451172 21.33484375 -10.61152344 20.6696875 -10.70117188 19.984375 C-11.22630558 16.01669812 -11.81814014 12.06873002 -12.5 8.125 C-13.49 7.795 -14.48 7.465 -15.5 7.125 C-15.5 6.465 -15.5 5.805 -15.5 5.125 C-10.16473178 1.12354884 -6.56033329 -0.01802289 0 0 Z " fill="#B84245" transform="translate(366.5,7.875)"/>
<path d="M0 0 C4.20592295 2.30472162 7.63469835 5.18655819 11.125 8.4375 C11.64964844 8.91509766 12.17429687 9.39269531 12.71484375 9.88476562 C15.45243824 12.41097624 17.89135891 14.92429248 20 18 C19.01 18 18.02 18 17 18 C17 17.34 17 16.68 17 16 C16.38125 15.9175 15.7625 15.835 15.125 15.75 C13 15 13 15 11.9375 13.0625 C11.4734375 12.0415625 11.4734375 12.0415625 11 11 C10.01 10.34 9.02 9.68 8 9 C6.515 11.475 6.515 11.475 5 14 C4.01 13.67 3.02 13.34 2 13 C2 9.33333333 2 5.66666667 2 2 C1.34 2 0.68 2 0 2 C0 1.34 0 0.68 0 0 Z " fill="#D82C33" transform="translate(456,354)"/>
<path d="M0 0 C0 4.84231606 -2.98727887 7.86813521 -6.125 11.375 C-8 13 -8 13 -10 13 C-10.66 14.65 -11.32 16.3 -12 18 C-12.99 18 -13.98 18 -15 18 C-15 18.66 -15 19.32 -15 20 C-15.66 20 -16.32 20 -17 20 C-17 20.66 -17 21.32 -17 22 C-18.32 22.33 -19.64 22.66 -21 23 C-15.33973225 14.15176535 -8.17725362 6.57735617 0 0 Z " fill="#C03D45" transform="translate(222,359)"/>
<path d="M0 0 C6.16356805 1.6658292 11.48259656 4.87805286 17 8 C15.02 8.99 15.02 8.99 13 10 C13 9.34 13 8.68 13 8 C11.68 8 10.36 8 9 8 C8 7 7 6 6 5 C3.77810134 3.88661712 3.77810134 3.88661712 1 4 C-1.02615644 4.89133491 -2.92604698 5.93772119 -4.86328125 7.0078125 C-8.20858701 8.56120859 -11.34169821 8.73869273 -15 9 C-14 7 -14 7 -11.6015625 6.03515625 C-9.62266205 5.38850768 -7.64349652 4.74266971 -5.6640625 4.09765625 C-3.07901553 3.03255625 -1.77252837 2.11618183 0 0 Z " fill="#C34C51" transform="translate(419,331)"/>
<path d="M0 0 C0.33 0.66 0.66 1.32 1 2 C1.66 2.33 2.32 2.66 3 3 C2.071875 3.556875 2.071875 3.556875 1.125 4.125 C-1.59443297 6.52449968 -2.03122962 8.54010579 -3 12 C-3.6599679 13.66933058 -4.32558869 15.3364521 -5 17 C-5.33 17.99 -5.66 18.98 -6 20 C-7.9375 21.125 -7.9375 21.125 -10 22 C-10.66 22.33 -11.32 22.66 -12 23 C-9.8101976 15.8831422 -7.6332508 9.06992572 -2 4 C-0.76487921 1.86690808 -0.76487921 1.86690808 0 0 Z " fill="#CC3135" transform="translate(254,160)"/>
<path d="M0 0 C-0.34629494 8.25913426 -0.34629494 8.25913426 -2.875 11.125 C-5 12 -5 12 -8 11 C-8 11.66 -8 12.32 -8 13 C-8.66 13 -9.32 13 -10 13 C-10.66 14.32 -11.32 15.64 -12 17 C-12 13 -12 13 -10 10 C-9.34 10 -8.68 10 -8 10 C-7.8453125 9.11054688 -7.8453125 9.11054688 -7.6875 8.203125 C-6.89294206 5.65692798 -5.91705537 4.57488925 -4 2.75 C-3.46375 2.22921875 -2.9275 1.7084375 -2.375 1.171875 C-1 0 -1 0 0 0 Z " fill="#DB2329" transform="translate(272,140)"/>
<path d="M0 0 C0.66 0.33 1.32 0.66 2 1 C2 1.66 2 2.32 2 3 C2.99 3.33 3.98 3.66 5 4 C5.28875 4.639375 5.5775 5.27875 5.875 5.9375 C6.84554971 8.26965958 6.84554971 8.26965958 9.5625 8.875 C10.366875 9.24625 11.17125 9.6175 12 10 C12.8125 13.125 12.8125 13.125 13 16 C11.8553125 15.0409375 11.8553125 15.0409375 10.6875 14.0625 C8.11753287 11.85767219 8.11753287 11.85767219 5 11 C4.278125 9.96875 3.55625 8.9375 2.8125 7.875 C1.60746721 6.19118795 1.60746721 6.19118795 0 5 C-2.94496426 4.7591479 -5.07677935 5.30635442 -8 6 C-7.67 5.01 -7.34 4.02 -7 3 C-5.5459375 2.814375 -5.5459375 2.814375 -4.0625 2.625 C-2.5465625 2.315625 -2.5465625 2.315625 -1 2 C-0.67 1.34 -0.34 0.68 0 0 Z " fill="#FAE8E4" transform="translate(379,105)"/>
<path d="M0 0 C0 0.66 0 1.32 0 2 C-1.29587227 3.0480901 -2.63652999 4.04149736 -4 5 C-4.86818359 5.7425 -4.86818359 5.7425 -5.75390625 6.5 C-11.07432906 10.91261849 -16.28510499 12.5928345 -23 14 C-23.66 13.34 -24.32 12.68 -25 12 C-23.92621094 11.55269531 -22.85242188 11.10539063 -21.74609375 10.64453125 C-20.30970587 10.03430111 -18.87351859 9.42359866 -17.4375 8.8125 C-16.73302734 8.52052734 -16.02855469 8.22855469 -15.30273438 7.92773438 C-11.60405033 6.34258407 -8.34680038 4.64992814 -5.09765625 2.26171875 C-2 0 -2 0 0 0 Z " fill="#FADDDE" transform="translate(443,650)"/>
<path d="M0 0 C0.66 0 1.32 0 2 0 C1.70099756 11.64787963 1.31685899 22.75605665 -2 34 C-2.33 34 -2.66 34 -3 34 C-3.22960803 28.00467915 -2.82839858 22.65037241 -1.51171875 16.8046875 C-0.50054389 11.26252302 -0.30761889 5.61809228 0 0 Z " fill="#C92B32" transform="translate(521,513)"/>
<path d="M0 0 C1.32 0 2.64 0 4 0 C2.88065302 3.35804095 2.32979455 3.73995917 -0.4921875 5.62890625 C-1.19730469 6.10650391 -1.90242188 6.58410156 -2.62890625 7.07617188 C-3.37011719 7.56666016 -4.11132812 8.05714844 -4.875 8.5625 C-5.60847656 9.05685547 -6.34195312 9.55121094 -7.09765625 10.06054688 C-9.06013046 11.38137423 -11.02848427 12.69272351 -13 14 C-13.99 14.66 -14.98 15.32 -16 16 C-18.6875 16.125 -18.6875 16.125 -21 16 C-18.11593757 12.59156258 -16.6291735 11.13408616 -12.1875 10.1875 C-10.6096875 10.0946875 -10.6096875 10.0946875 -9 10 C-8.67 9.01 -8.34 8.02 -8 7 C-6.01310269 5.64721885 -4.01254782 4.31431695 -2 3 C-1.34 2.01 -0.68 1.02 0 0 Z " fill="#C2323B" transform="translate(456,636)"/>
<path d="M0 0 C2.0625 0.4375 2.0625 0.4375 4 1 C4 2.65 4 4.3 4 6 C6.97 6.66 9.94 7.32 13 8 C8.49778552 9.12555362 7.0494587 8.62914314 2.75 7.1875 C-2.14357504 5.59308829 -6.99177428 4.17840605 -12 3 C-10 1 -10 1 -7.0625 0.875 C-5.5465625 0.936875 -5.5465625 0.936875 -4 1 C-3.01 1 -2.02 1 -1 1 C-0.67 0.67 -0.34 0.34 0 0 Z " fill="#FBE6E2" transform="translate(316,106)"/>
<path d="M0 0 C3.33022611 3.85384657 5.1103623 8.38035458 7.125 13 C7.48464844 13.80695313 7.84429687 14.61390625 8.21484375 15.4453125 C9.75731622 18.94620508 11.15788321 22.25725873 12 26 C11.01 26 10.02 26 9 26 C8.80664062 25.43410156 8.61328125 24.86820312 8.4140625 24.28515625 C8.15367187 23.55167969 7.89328125 22.81820313 7.625 22.0625 C7.36976563 21.33160156 7.11453125 20.60070312 6.8515625 19.84765625 C6.14728587 17.81317884 6.14728587 17.81317884 4 17 C3.21875 14.41796875 3.21875 14.41796875 2.5 11.1875 C1.67506496 7.50667571 0.85290343 4.29848757 -1 1 C-0.67 0.67 -0.34 0.34 0 0 Z " fill="#BD3943" transform="translate(504,412)"/>
<path d="M0 0 C0.99 0.33 1.98 0.66 3 1 C2.67 1.66 2.34 2.32 2 3 C1.34 3 0.68 3 0 3 C-0.06574219 3.59167969 -0.13148438 4.18335938 -0.19921875 4.79296875 C-1.3242413 7.89364065 -3.00547852 8.65623403 -5.8125 10.3125 C-6.68519531 10.84488281 -7.55789062 11.37726563 -8.45703125 11.92578125 C-11.33007244 13.13943152 -12.13116385 12.88374305 -15 12 C-12.57604379 9.96245224 -10.13386824 7.94805975 -7.6875 5.9375 C-6.99720703 5.35677734 -6.30691406 4.77605469 -5.59570312 4.17773438 C-4.92861328 3.63310547 -4.26152344 3.08847656 -3.57421875 2.52734375 C-2.96151123 2.01937256 -2.34880371 1.51140137 -1.7175293 0.98803711 C-1.15074463 0.66198486 -0.58395996 0.33593262 0 0 Z " fill="#C93A3F" transform="translate(238,346)"/>
<path d="M0 0 C3.80152027 0.42824752 7.32141061 1.72909686 10.9375 2.9375 C17.91008359 5.13139072 24.74409296 6.17323998 32 7 C32 7.33 32 7.66 32 8 C24.61452939 8.39961464 18.18882629 7.52927972 11.0234375 5.7421875 C4.24636786 3.9360911 4.24636786 3.9360911 -2.5 4.9375 C-2.995 5.288125 -3.49 5.63875 -4 6 C-2.84826645 3.53199953 -1.95216435 1.95216435 0 0 Z " fill="#B53B40" transform="translate(307,109)"/>
<path d="M0 0 C0.33 0.99 0.66 1.98 1 3 C-0.9375 6.1875 -0.9375 6.1875 -3 9 C-3.66 8.67 -4.32 8.34 -5 8 C-7.40222283 8 -9.7351597 8.25488817 -12.125 8.5 C-13.03507812 8.5928125 -13.94515625 8.685625 -14.8828125 8.78125 C-15.93082031 8.88953125 -15.93082031 8.88953125 -17 9 C-17 9.66 -17 10.32 -17 11 C-18.65 11 -20.3 11 -22 11 C-19.03192639 8.5462998 -16.33437975 7.26437126 -12.6875 6.0625 C-8.07973784 4.46275416 -4.13492343 2.57284125 0 0 Z " fill="#F8E3E2" transform="translate(409,311)"/>
<path d="M0 0 C0 0.66 0 1.32 0 2 C1.32 2.66 2.64 3.32 4 4 C4 4.66 4 5.32 4 6 C4.59296875 6.09152344 5.1859375 6.18304688 5.796875 6.27734375 C8.52534657 7.17232113 9.47125041 8.33906301 11.25 10.5625 C11.77078125 11.20316406 12.2915625 11.84382813 12.828125 12.50390625 C13.21484375 12.99761719 13.6015625 13.49132812 14 14 C11.6875 13.8125 11.6875 13.8125 9 13 C7.9935725 11.33720673 6.99414593 9.67016516 6 8 C2.93319201 6.17370206 2.93319201 6.17370206 0 5 C0 4.34 0 3.68 0 3 C-2.97 3 -5.94 3 -9 3 C-9 2.34 -9 1.68 -9 1 C-5.57367167 -0.61798838 -3.61944899 -1.34053666 0 0 Z " fill="#BD3E44" transform="translate(380,110)"/>
<path d="M0 0 C5.34844008 0.53484401 9.35796103 2.46690767 14 5 C14 5.66 14 6.32 14 7 C14.8353125 6.62875 14.8353125 6.62875 15.6875 6.25 C18 6 18 6 20.75 7.9375 C21.4925 8.618125 22.235 9.29875 23 10 C16.85344445 10.49491746 13.29744585 9.07922302 8.125 6.125 C7.44953125 5.76019531 6.7740625 5.39539063 6.078125 5.01953125 C1.1487409 2.2974818 1.1487409 2.2974818 0 0 Z " fill="#BD414A" transform="translate(272,308)"/>
<path d="M0 0 C1.48117801 0.28127421 2.95993249 0.57533732 4.4375 0.875 C5.67306641 1.11863281 5.67306641 1.11863281 6.93359375 1.3671875 C7.61550781 1.57601562 8.29742187 1.78484375 9 2 C9.33 2.66 9.66 3.32 10 4 C10.825 4.433125 11.65 4.86625 12.5 5.3125 C15 7 15 7 15.8125 9.6875 C15.874375 10.450625 15.93625 11.21375 16 12 C15.01 12 14.02 12 13 12 C13 11.34 13 10.68 13 10 C12.43796875 9.74347656 11.8759375 9.48695313 11.296875 9.22265625 C8.71960738 7.85074338 6.54832724 6.23635416 4.25 4.4375 C3.45078125 3.81746094 2.6515625 3.19742188 1.828125 2.55859375 C1.22484375 2.04425781 0.6215625 1.52992188 0 1 C0 0.67 0 0.34 0 0 Z " fill="#C72E36" transform="translate(224,635)"/>
<path d="M0 0 C2.5625 1.5 2.5625 1.5 4 3 C4.66 2.34 5.32 1.68 6 1 C6.99 1.33 7.98 1.66 9 2 C9 2.66 9 3.32 9 4 C9.99 4.33 10.98 4.66 12 5 C8.49223216 6.60355101 5.85645121 7.22036864 2 7 C2.33 6.34 2.66 5.68 3 5 C1.02 4.34 -0.96 3.68 -3 3 C-3 2.67 -3 2.34 -3 2 C-5.97 2 -8.94 2 -12 2 C-7.98677954 -0.67548031 -4.71626345 -0.58740465 0 0 Z " fill="#D12B32" transform="translate(371,9)"/>
<path d="M0 0 C0.33 0 0.66 0 1 0 C1.19820989 4.02037968 1.3816467 8.04130512 1.5625 12.0625 C1.61857422 13.19623047 1.67464844 14.32996094 1.73242188 15.49804688 C1.97983976 21.15566921 2.09078977 26.43293223 1 32 C0.34 32 -0.32 32 -1 32 C-1.33 32.66 -1.66 33.32 -2 34 C-1.93941406 33.22140625 -1.87882812 32.4428125 -1.81640625 31.640625 C-1.02720348 21.10173257 -0.49912751 10.55601593 0 0 Z " fill="#F5C1C3" transform="translate(453,217)"/>
<path d="M0 0 C5.91969002 1.75990784 11.41634992 4.39694605 17 7 C16.01 7.66 15.02 8.32 14 9 C14 8.34 14 7.68 14 7 C12.948125 7.185625 11.89625 7.37125 10.8125 7.5625 C7.42880118 7.95079331 5.23574112 7.88247485 2 7 C2 6.01 2 5.02 2 4 C1.05021103 1.84971696 1.05021103 1.84971696 0 0 Z " fill="#F9E6E3" transform="translate(249,654)"/>
<path d="M0 0 C0 0.66 0 1.32 0 2 C-0.99 2 -1.98 2 -3 2 C-3.33 3.32 -3.66 4.64 -4 6 C-6.31 6.33 -8.62 6.66 -11 7 C-11.33 8.65 -11.66 10.3 -12 12 C-12.5775 11.814375 -13.155 11.62875 -13.75 11.4375 C-16.20692525 10.95976454 -17.64397534 11.24270636 -20 12 C-16.7106702 8.3304964 -13.12557223 6.11629795 -8.875 3.75 C-8.24207031 3.38648438 -7.60914063 3.02296875 -6.95703125 2.6484375 C-2.2675047 0 -2.2675047 0 0 0 Z " fill="#C54A4E" transform="translate(260,334)"/>
<path d="M0 0 C1.65 0 3.3 0 5 0 C1.32552618 4.67660304 -3.6145848 6.01106825 -9 8 C-10.87710326 8.74472032 -12.75220963 9.49449934 -14.625 10.25 C-16.08333333 10.83333333 -17.54166667 11.41666667 -19 12 C-19.33 11.34 -19.66 10.68 -20 10 C-19.01 10 -18.02 10 -17 10 C-17 9.34 -17 8.68 -17 8 C-13.535 7.505 -13.535 7.505 -10 7 C-10 6.34 -10 5.68 -10 5 C-9.36191406 4.80664062 -8.72382813 4.61328125 -8.06640625 4.4140625 C-7.24011719 4.15367187 -6.41382813 3.89328125 -5.5625 3.625 C-4.32693359 3.24214844 -4.32693359 3.24214844 -3.06640625 2.8515625 C-0.82201984 2.19117773 -0.82201984 2.19117773 0 0 Z " fill="#B93841" transform="translate(433,652)"/>
<path d="M0 0 C-10.24755493 5.99671733 -24.69435548 4.02401187 -36 3 C-36 2.67 -36 2.34 -36 2 C-35.26362305 1.98018066 -34.52724609 1.96036133 -33.76855469 1.93994141 C-30.42867944 1.84462172 -27.08942361 1.73497004 -23.75 1.625 C-22.59113281 1.5940625 -21.43226563 1.563125 -20.23828125 1.53125 C-19.12324219 1.49257812 -18.00820313 1.45390625 -16.859375 1.4140625 C-15.31975098 1.36693115 -15.31975098 1.36693115 -13.74902344 1.31884766 C-0.89474384 -0.17206612 -0.89474384 -0.17206612 0 0 Z " fill="#FBCAC8" transform="translate(365,113)"/>
<path d="M0 0 C1.29047171 3.87141514 0.6542778 5.31547216 -1 9 C-4.13906582 12.13906582 -6.5894051 13.49593201 -11 14 C-9.95125002 11.37812506 -9.35068687 10.20628639 -6.875 8.75 C-6.25625 8.5025 -5.6375 8.255 -5 8 C-5 7.34 -5 6.68 -5 6 C-4.34 6 -3.68 6 -3 6 C-2.690625 5.195625 -2.38125 4.39125 -2.0625 3.5625 C-1 1 -1 1 0 0 Z " fill="#CA3C41" transform="translate(337,78)"/>
<path d="M0 0 C0.33 0.99 0.66 1.98 1 3 C-1.65852154 7.25363446 -4.50864714 8.94959978 -9 11 C-9.66 11.66 -10.32 12.32 -11 13 C-11 12.34 -11 11.68 -11 11 C-11.99 10.67 -12.98 10.34 -14 10 C-9.38 6.7 -4.76 3.4 0 0 Z " fill="#F7D8D6" transform="translate(457,639)"/>
<path d="M0 0 C2.0625 0.4375 2.0625 0.4375 4 1 C3.34 1 2.68 1 2 1 C2 1.66 2 2.32 2 3 C0.35648543 4.36176922 -1.31522656 5.68962066 -3 7 C-5.70953375 9.58350893 -7.92095344 11.88143016 -10 15 C-9.01 15.33 -8.02 15.66 -7 16 C-8.32 16.33 -9.64 16.66 -11 17 C-11 16.34 -11 15.68 -11 15 C-11.99 14.67 -12.98 14.34 -14 14 C-13.01 14 -12.02 14 -11 14 C-10.34 12.02 -9.68 10.04 -9 8 C-8.01 8 -7.02 8 -6 8 C-6 7.34 -6 6.68 -6 6 C-4.37550757 4.29220027 -2.70779973 2.62449243 -1 1 C-0.67 0.67 -0.34 0.34 0 0 Z " fill="#F7EAE3" transform="translate(330,83)"/>
<path d="M0 0 C0.74636719 0.12375 1.49273437 0.2475 2.26171875 0.375 C1.93171875 1.15875 1.60171875 1.9425 1.26171875 2.75 C0.14305364 5.21832497 0.14305364 5.21832497 0.26171875 7.375 C-0.72828125 7.375 -1.71828125 7.375 -2.73828125 7.375 C-2.73828125 8.035 -2.73828125 8.695 -2.73828125 9.375 C-4.36454529 10.75732443 -6.03078145 12.09437515 -7.73828125 13.375 C-8.39828125 13.045 -9.05828125 12.715 -9.73828125 12.375 C-8.6992072 10.3627298 -7.63120458 8.36537476 -6.55078125 6.375 C-5.95910156 5.26125 -5.36742187 4.1475 -4.7578125 3 C-2.73828125 0.375 -2.73828125 0.375 0 0 Z " fill="#CC4046" transform="translate(351.73828125,58.625)"/>
<path d="M0 0 C0 3.95990294 -1.78374231 6.37046052 -3.8125 9.625 C-4.16892578 10.223125 -4.52535156 10.82125 -4.89257812 11.4375 C-7.62923811 15.8764127 -7.62923811 15.8764127 -11 17 C-10.33333333 14.33333333 -9.66666667 11.66666667 -9 9 C-8.01 9 -7.02 9 -6 9 C-5.7525 8.2575 -5.505 7.515 -5.25 6.75 C-3.90852699 3.79875938 -2.39094474 2.15185026 0 0 Z " fill="#C32D36" transform="translate(383,56)"/>
<path d="M0 0 C0.33 0.66 0.66 1.32 1 2 C-0.99280636 6.51003546 -3.52831022 10.7384659 -6 15 C-6.99 15 -7.98 15 -9 15 C-9 15.66 -9 16.32 -9 17 C-9.66 17 -10.32 17 -11 17 C-9.52869627 12.6426774 -7.16919385 9.28065866 -4.375 5.6875 C-3.95476562 5.13771484 -3.53453125 4.58792969 -3.1015625 4.02148438 C-2.07279961 2.67707832 -1.0370991 1.33798587 0 0 Z " fill="#CB323E" transform="translate(200,382)"/>
<path d="M0 0 C1.32 0.33 2.64 0.66 4 1 C0.6116082 5.14524907 -2.69209155 8.76906866 -7 12 C-7.66 12.66 -8.32 13.32 -9 14 C-9.33 13.01 -9.66 12.02 -10 11 C-8 8 -8 8 -5.5625 6.625 C-2.64184195 4.77287538 -1.56166736 3.0411417 0 0 Z " fill="#FBE9E8" transform="translate(220,356)"/>
<path d="M0 0 C2 2 2 2 2.22705078 3.97119141 C2.21657715 4.75671387 2.20610352 5.54223633 2.1953125 6.3515625 C2.18886719 7.20234375 2.18242187 8.053125 2.17578125 8.9296875 C2.15902344 9.81914063 2.14226562 10.70859375 2.125 11.625 C2.11597656 12.5221875 2.10695313 13.419375 2.09765625 14.34375 C2.0740497 16.56276586 2.0411231 18.78125077 2 21 C1.34 21 0.68 21 0 21 C-0.33 21.66 -0.66 22.32 -1 23 C-1.02887512 19.35418313 -1.04675585 15.70839537 -1.0625 12.0625 C-1.07087891 11.02158203 -1.07925781 9.98066406 -1.08789062 8.90820312 C-1.09272461 7.42416992 -1.09272461 7.42416992 -1.09765625 5.91015625 C-1.10289307 4.99371338 -1.10812988 4.07727051 -1.11352539 3.13305664 C-1 1 -1 1 0 0 Z " fill="#FCF4F2" transform="translate(390,24)"/>
<path d="M0 0 C3.12135972 3.73297751 5.74516932 7.65169793 8.25 11.8125 C8.61351562 12.40998047 8.97703125 13.00746094 9.3515625 13.62304688 C10.23747996 15.08014796 11.11918273 16.5398102 12 18 C11.34 18.66 10.68 19.32 10 20 C6.57068046 16.2440786 5.43570917 11.76533255 4 7 C3.01 7 2.02 7 1 7 C0.67 4.69 0.34 2.38 0 0 Z " fill="#BD3941" transform="translate(492,392)"/>
<path d="M0 0 C3.63824085 3.54663047 6.99912094 7.22199849 10.25 11.125 C10.69601562 11.64964844 11.14203125 12.17429687 11.6015625 12.71484375 C13.63075457 15.14372517 14.98891926 16.96675779 16 20 C12.58841744 18.86280581 11.88145399 17.95657056 10 15 C10 14.34 10 13.68 10 13 C9.01 12.67 8.02 12.34 7 12 C5.64721885 10.01310269 4.31431695 8.01254782 3 6 C2.01 5.34 1.02 4.68 0 4 C0 2.68 0 1.36 0 0 Z " fill="#B93F45" transform="translate(476,372)"/>
<path d="M0 0 C6.08867157 3.69379408 10.61251614 7.3750207 15 13 C14.34 13.66 13.68 14.32 13 15 C10.27573689 12.64722731 9.1858237 10.37503669 8 7 C6.8553125 7.1546875 6.8553125 7.1546875 5.6875 7.3125 C4.800625 7.209375 3.91375 7.10625 3 7 C1.18116991 4.6167054 0 3.04181663 0 0 Z " fill="#C13B41" transform="translate(406,134)"/>
<path d="M0 0 C0.66 0 1.32 0 2 0 C2.66 1.32 3.32 2.64 4 4 C6.64 3.67 9.28 3.34 12 3 C12.33 3.66 12.66 4.32 13 5 C10.73052303 5.36275656 8.45935265 5.71493186 6.1875 6.0625 C4.29064453 6.35833984 4.29064453 6.35833984 2.35546875 6.66015625 C-1 7 -1 7 -4 6 C-2.84826645 3.53199953 -1.95216435 1.95216435 0 0 Z " fill="#B34949" transform="translate(324,92)"/>
<path d="M0 0 C-0.99 0.66 -1.98 1.32 -3 2 C-3.99 2.680625 -4.98 3.36125 -6 4.0625 C-9 6 -9 6 -12 7 C-12.33 7.99 -12.66 8.98 -13 10 C-15.375 11.25 -15.375 11.25 -18 12 C-18.99 11.67 -19.98 11.34 -21 11 C-20.030625 10.731875 -19.06125 10.46375 -18.0625 10.1875 C-17.051875 9.795625 -16.04125 9.40375 -15 9 C-14.67 8.01 -14.34 7.02 -14 6 C-12.35178756 4.96986723 -10.68496298 3.96885372 -9 3 C-8.67 2.34 -8.34 1.68 -8 1 C-3.6 -1.2 -3.6 -1.2 0 0 Z " fill="#F9E2E1" transform="translate(374,78)"/>
<path d="M0 0 C2.475 0.495 2.475 0.495 5 1 C5.66 2.98 6.32 4.96 7 7 C7.99 7 8.98 7 10 7 C10 7.66 10 8.32 10 9 C10.99 9.33 11.98 9.66 13 10 C13 11.65 13 13.3 13 15 C8.42265886 10.56570077 4.07873675 5.89853248 0 1 C0 0.67 0 0.34 0 0 Z " fill="#BB3036" transform="translate(198,608)"/>
<path d="M0 0 C0.33 0.66 0.66 1.32 1 2 C1.66 2.33 2.32 2.66 3 3 C1.71034824 4.37562854 0.37310707 5.70766393 -1 7 C-1.66 7 -2.32 7 -3 7 C-3.66 8.98 -4.32 10.96 -5 13 C-5.66 13 -6.32 13 -7 13 C-7.33 13.66 -7.66 14.32 -8 15 C-8.66 15 -9.32 15 -10 15 C-8.37815499 11.41486894 -6.20743761 8.41007677 -3.875 5.25 C-3.15054687 4.26515625 -2.42609375 3.2803125 -1.6796875 2.265625 C-1.12539063 1.51796875 -0.57109375 0.7703125 0 0 Z " fill="#F4C9CB" transform="translate(493,600)"/>
<path d="M0 0 C1.98 0.99 3.96 1.98 6 3 C6 4.98 6 6.96 6 9 C7.32 9.66 8.64 10.32 10 11 C10 11.66 10 12.32 10 13 C10.66 13 11.32 13 12 13 C12 13.99 12 14.98 12 16 C7.7634191 14.47330418 6.14575891 11.69124336 3.75 8 C3.04359375 6.9275 2.3371875 5.855 1.609375 4.75 C0 2 0 2 0 0 Z " fill="#C12B35" transform="translate(187,591)"/>
<path d="M0 0 C1.27609323 0.90933009 2.54565553 1.82782853 3.8125 2.75 C4.87404297 3.51570312 4.87404297 3.51570312 5.95703125 4.296875 C8.02977691 6.02482358 9.47375854 7.78526476 11 10 C10.01 10 9.02 10 8 10 C7.67 10.66 7.34 11.32 7 12 C5.66104368 10.33784732 4.32869858 8.67036393 3 7 C2.4225 6.29875 1.845 5.5975 1.25 4.875 C0 3 0 3 0 0 Z " fill="#F6DCD9" transform="translate(214,627)"/>
<path d="M0 0 C4.9240432 4.7652031 9.44259642 9.88657333 14 15 C13.34 15.66 12.68 16.32 12 17 C12 16.34 12 15.68 12 15 C11.34 15 10.68 15 10 15 C10 14.34 10 13.68 10 13 C9.01 13 8.02 13 7 13 C6.9071875 11.824375 6.9071875 11.824375 6.8125 10.625 C6.544375 9.75875 6.27625 8.8925 6 8 C5.175 7.690625 4.35 7.38125 3.5 7.0625 C2.675 6.711875 1.85 6.36125 1 6 C0.1875 2.875 0.1875 2.875 0 0 Z " fill="#F4CECC" transform="translate(200,611)"/>
<path d="M0 0 C0.33 0 0.66 0 1 0 C0.4140625 6.15234375 0.4140625 6.15234375 0 8 C-0.99 8.495 -0.99 8.495 -2 9 C-3.13350534 11.01669827 -3.13350534 11.01669827 -4 13 C-4.66 13 -5.32 13 -6 13 C-6.33 14.32 -6.66 15.64 -7 17 C-7.66 16.67 -8.32 16.34 -9 16 C-7.68968564 13.51965551 -6.37686532 11.0406965 -5.0625 8.5625 C-4.68931641 7.85544922 -4.31613281 7.14839844 -3.93164062 6.41992188 C-1.11328125 1.11328125 -1.11328125 1.11328125 0 0 Z " fill="#BF3940" transform="translate(188,399)"/>
<path d="M0 0 C0.66 0.99 1.32 1.98 2 3 C0.6875 6.4375 0.6875 6.4375 -1 10 C-1.37308631 11.32276056 -1.73046415 12.65232077 -2 14 C-2.66 13.67 -3.32 13.34 -4 13 C-4 13.66 -4 14.32 -4 15 C-4.66 15 -5.32 15 -6 15 C-5.74476126 13.37247769 -5.47025506 11.74796804 -5.1875 10.125 C-5.03667969 9.22007812 -4.88585937 8.31515625 -4.73046875 7.3828125 C-4 5 -4 5 -1 3 C-0.67 2.01 -0.34 1.02 0 0 Z " fill="#CE2629" transform="translate(245,178)"/>
<path d="M0 0 C2.52259061 1.97420135 2.9929808 2.96745642 3.6875 6.1875 C3.790625 7.115625 3.89375 8.04375 4 9 C4.66 9 5.32 9 6 9 C7.14982602 13.09003859 7.11094256 17.03177051 7.0625 21.25 C7.05798828 21.99507812 7.05347656 22.74015625 7.04882812 23.5078125 C7.03709246 25.3385764 7.0191585 27.16929873 7 29 C6.67 29 6.34 29 6 29 C6 24.05 6 19.1 6 14 C5.34 14 4.68 14 4 14 C0.74031891 4.58997722 0.74031891 4.58997722 0 0 Z " fill="#CF676D" transform="translate(383,14)"/>
<path d="M0 0 C0.66 0.33 1.32 0.66 2 1 C1.9278125 2.05960937 1.855625 3.11921875 1.78125 4.2109375 C1.68746497 5.59895597 1.59371689 6.98697693 1.5 8.375 C1.42845703 9.42300781 1.42845703 9.42300781 1.35546875 10.4921875 C1.09344214 14.2427781 1.09344214 14.2427781 1 18 C0.34 18 -0.32 18 -1 18 C-1.33 19.98 -1.66 21.96 -2 24 C-2.33 24 -2.66 24 -3 24 C-2 16 -1 8 0 0 Z " fill="#DF272F" transform="translate(166,454)"/>
<path d="M0 0 C0.66 0 1.32 0 2 0 C2.84357963 3.059771 3.6730202 6.1232046 4.5 9.1875 C4.73847656 10.05181641 4.97695313 10.91613281 5.22265625 11.80664062 C5.44824219 12.64775391 5.67382812 13.48886719 5.90625 14.35546875 C6.11572266 15.12528076 6.32519531 15.89509277 6.54101562 16.68823242 C7.03538729 19.17823523 7.07833519 21.46781499 7 24 C4.67688073 20.5153211 3.88758955 17.13488366 2.9375 13.125 C2.76412109 12.41730469 2.59074219 11.70960938 2.41210938 10.98046875 C1.52617697 7.33490781 0.70099601 3.68564912 0 0 Z " fill="#B5353D" transform="translate(515,440)"/>
<path d="M0 0 C0 0.66 0 1.32 0 2 C-4.33548458 3.5861529 -8.42870879 4.40742521 -13 5 C-13.70125 5.20625 -14.4025 5.4125 -15.125 5.625 C-17.61043845 6.12208769 -19.5657999 5.60855003 -22 5 C-22 4.67 -22 4.34 -22 4 C-18.89688362 3.32838005 -15.79234832 2.66356325 -12.6875 2 C-11.80642578 1.80921875 -10.92535156 1.6184375 -10.01757812 1.421875 C-9.17001953 1.24140625 -8.32246094 1.0609375 -7.44921875 0.875 C-6.66893311 0.70742188 -5.88864746 0.53984375 -5.0847168 0.3671875 C-3 0 -3 0 0 0 Z " fill="#C65C60" transform="translate(388,346)"/>
<path d="M0 0 C0.99 0.33 1.98 0.66 3 1 C2.06725891 2.12894876 1.12859878 3.25300876 0.1875 4.375 C-0.33457031 5.00148438 -0.85664063 5.62796875 -1.39453125 6.2734375 C-3 8 -3 8 -6 10 C-6.625 7.625 -6.625 7.625 -7 5 C-5 3 -5 3 -2.9375 2.5 C-2.298125 2.335 -1.65875 2.17 -1 2 C-0.67 1.34 -0.34 0.68 0 0 Z " fill="#C9353A" transform="translate(423,296)"/>
<path d="M0 0 C5.69305433 1.23876645 11.35370013 2.56276003 17 4 C13.58389775 4.94314127 10.54865136 5.08065117 7 5 C7 5.99 7 6.98 7 8 C5.0625 7.3125 5.0625 7.3125 3 6 C2.375 3.4375 2.375 3.4375 2 1 C1.34 0.67 0.68 0.34 0 0 Z " fill="#FAE3E0" transform="translate(272,664)"/>
<path d="M0 0 C3.86715038 2.12246797 6.74405677 4.52746145 9.8125 7.6875 C10.60269531 8.49574219 11.39289063 9.30398438 12.20703125 10.13671875 C13.09455078 11.05904297 13.09455078 11.05904297 14 12 C13.01 12.33 12.02 12.66 11 13 C11 12.34 11 11.68 11 11 C10.38125 10.9175 9.7625 10.835 9.125 10.75 C8.42375 10.5025 7.7225 10.255 7 10 C6.71125 9.38125 6.4225 8.7625 6.125 8.125 C4.49149048 5.03948202 2.11834294 4.35580128 -1 3 C-0.67 2.01 -0.34 1.02 0 0 Z " fill="#C04145" transform="translate(462,359)"/>
<path d="M0 0 C4.26029191 0.57999024 7.35161535 3.12387893 10.75 5.5625 C11.35199219 5.98724609 11.95398438 6.41199219 12.57421875 6.84960938 C14.05329714 7.89435522 15.52717259 8.94646016 17 10 C14 11 14 11 11 10 C10.608125 9.401875 10.21625 8.80375 9.8125 8.1875 C7.15876689 4.98471866 3.74755192 3.67349112 0 2 C0 1.34 0 0.68 0 0 Z " fill="#BC3843" transform="translate(439,343)"/>
<path d="M0 0 C1.2065625 0.0309375 1.2065625 0.0309375 2.4375 0.0625 C2.7675 1.0525 3.0975 2.0425 3.4375 3.0625 C1.1275 3.0625 -1.1825 3.0625 -3.5625 3.0625 C-3.8925 4.0525 -4.2225 5.0425 -4.5625 6.0625 C-6.2125 6.3925 -7.8625 6.7225 -9.5625 7.0625 C-9.8925 6.4025 -10.2225 5.7425 -10.5625 5.0625 C-9.9025 5.0625 -9.2425 5.0625 -8.5625 5.0625 C-8.2325 4.0725 -7.9025 3.0825 -7.5625 2.0625 C-5.5625 1.4375 -5.5625 1.4375 -3.5625 1.0625 C-2.5625 0.0625 -2.5625 0.0625 0 0 Z " fill="#FDF2F0" transform="translate(420.5625,328.9375)"/>
<path d="M0 0 C0 0.66 0 1.32 0 2 C-0.66 2 -1.32 2 -2 2 C-2 2.66 -2 3.32 -2 4 C-5.87684087 5.19287411 -8.91621923 6 -13 6 C-13 5.01 -13 4.02 -13 3 C-11.2092015 2.49689942 -9.41733089 1.99761372 -7.625 1.5 C-6.62726563 1.2215625 -5.62953125 0.943125 -4.6015625 0.65625 C-2 0 -2 0 0 0 Z " fill="#FCEFEA" transform="translate(386,322)"/>
<path d="M0 0 C0 0.66 0 1.32 0 2 C-1.72681437 2.50806447 -3.45657979 3.00610467 -5.1875 3.5 C-6.63189453 3.91765625 -6.63189453 3.91765625 -8.10546875 4.34375 C-10.85345876 4.96677608 -13.19598416 5.12302812 -16 5 C-14.52883203 2.05766405 -12.17404609 1.66202197 -9.2109375 0.59765625 C-6.02384809 -0.26387145 -3.28479071 -0.20529942 0 0 Z " fill="#C44544" transform="translate(384,321)"/>
<path d="M0 0 C0.75929472 2.98613386 1.4118332 5.97514219 2 9 C1.38125 9.268125 0.7625 9.53625 0.125 9.8125 C-2.2995233 10.95556848 -2.2995233 10.95556848 -4 14 C-4.66 14 -5.32 14 -6 14 C-4.16508812 9.25981099 -2.08058541 4.63586749 0 0 Z " fill="#F9E1E0" transform="translate(445,267)"/>
<path d="M0 0 C-0.66 1.65 -1.32 3.3 -2 5 C-2.33 4.34 -2.66 3.68 -3 3 C-4.2375 3.37125 -5.475 3.7425 -6.75 4.125 C-9.50855114 4.95256534 -10.56508292 5.1814654 -13.265625 4.0546875 C-13.83796875 3.70664062 -14.4103125 3.35859375 -15 3 C-13.25183142 2.49363393 -11.50137737 1.99515381 -9.75 1.5 C-8.77546875 1.2215625 -7.8009375 0.943125 -6.796875 0.65625 C-4 0 -4 0 0 0 Z " fill="#FBDEDF" transform="translate(412,665)"/>
<path d="M0 0 C3.94120709 0.56302958 6.7508723 1.6791945 10 4 C10 4.66 10 5.32 10 6 C10.78375 6.144375 11.5675 6.28875 12.375 6.4375 C15 7 15 7 17 8 C17 8.66 17 9.32 17 10 C12.56473186 8.69047721 9.00013681 6.95266332 5.125 4.4375 C4.15820312 3.81746094 3.19140625 3.19742188 2.1953125 2.55859375 C1.47085938 2.04425781 0.74640625 1.52992188 0 1 C0 0.67 0 0.34 0 0 Z " fill="#BC3137" transform="translate(240,647)"/>
<path d="M0 0 C1.25425781 0.10183594 2.50851562 0.20367187 3.80078125 0.30859375 C5.22970703 0.43427734 5.22970703 0.43427734 6.6875 0.5625 C6.6875 0.8925 6.6875 1.2225 6.6875 1.5625 C0.63920514 2.45854368 -5.2019576 2.67519443 -11.3125 2.5625 C-11.6425 1.9025 -11.9725 1.2425 -12.3125 0.5625 C-8.06698144 -0.53337955 -4.3532161 -0.36615836 0 0 Z " fill="#CF4A4F" transform="translate(321.3125,350.4375)"/>
<path d="M0 0 C4.21814817 3.9700218 7.61227103 8.30840284 11 13 C8 13 8 13 5 11 C4.3162955 9.67532254 3.65035814 8.34136367 3 7 C2.46375 6.505 1.9275 6.01 1.375 5.5 C0 4 0 4 0 0 Z " fill="#FADDDC" transform="translate(251,288)"/>
<path d="M0 0 C1 3 1 3 0.4375 5.5625 C-1.49934026 8.8467074 -3.42185355 9.01029992 -7 10 C-7.33 10.66 -7.66 11.32 -8 12 C-8.66 11.67 -9.32 11.34 -10 11 C-8.89718873 9.72799029 -7.79269231 8.45744147 -6.6875 7.1875 C-6.07261719 6.47980469 -5.45773437 5.77210938 -4.82421875 5.04296875 C-3.26665665 3.29863261 -1.67341125 1.63221959 0 0 Z " fill="#F5CFD0" transform="translate(482,615)"/>
<path d="M0 0 C3 3.75 3 3.75 3 6 C3.66 6 4.32 6 5 6 C5.33 7.98 5.66 9.96 6 12 C6.66 12 7.32 12 8 12 C8 13.98 8 15.96 8 18 C5.5708627 14.98672998 3.90815875 11.9594495 2.3125 8.4375 C1.87550781 7.48746094 1.43851563 6.53742187 0.98828125 5.55859375 C0 3 0 3 0 0 Z " fill="#B92D32" transform="translate(172,560)"/>
<path d="M0 0 C-0.33 1.32 -0.66 2.64 -1 4 C-1.66 4 -2.32 4 -3 4 C-3.66 5.98 -4.32 7.96 -5 10 C-6.32 10 -7.64 10 -9 10 C-8.34 9.01 -7.68 8.02 -7 7 C-7.33 6.34 -7.66 5.68 -8 5 C-2.25 0 -2.25 0 0 0 Z " fill="#F8E3E1" transform="translate(352,55)"/>
<path d="M0 0 C6.61085476 0.48969295 11.94977014 2.33442742 18 5 C18 5.33 18 5.66 18 6 C11.18012971 5.56699236 6.08356979 4.09212176 0 1 C0 0.67 0 0.34 0 0 Z " fill="#BA333A" transform="translate(257,657)"/>
<path d="M0 0 C3.3125 1.9375 3.3125 1.9375 6 4 C6 4.33 6 4.66 6 5 C4.33388095 5.042721 2.66617115 5.04063832 1 5 C0.67 4.67 0.34 4.34 0 4 C-2.32817964 3.63239269 -4.6618385 3.29758419 -7 3 C-7 2.34 -7 1.68 -7 1 C-4.37310841 -0.31344579 -2.93059745 -0.33302244 0 0 Z " fill="#C2373B" transform="translate(267,332)"/>
<path d="M0 0 C0.66 0 1.32 0 2 0 C4.20949832 4.41029783 4.2370648 8.48940324 4.125 13.3125 C4.11597656 14.05306641 4.10695313 14.79363281 4.09765625 15.55664062 C4.07424213 17.37123467 4.03837615 19.18566071 4 21 C3.67 21 3.34 21 3 21 C2.86722656 19.98679687 2.73445313 18.97359375 2.59765625 17.9296875 C2.41932416 16.57811796 2.24093575 15.22655586 2.0625 13.875 C1.97548828 13.20984375 1.88847656 12.5446875 1.79882812 11.859375 C1.27369442 7.89169812 0.68185986 3.94373002 0 0 Z " fill="#CC636C" transform="translate(354,16)"/>
<path d="M0 0 C-3.46741134 2.95749791 -6.86873527 5.07848152 -11 7 C-11.33 6.34 -11.66 5.68 -12 5 C-11.34 5 -10.68 5 -10 5 C-9.731875 4.360625 -9.46375 3.72125 -9.1875 3.0625 C-7.07129989 -0.61300545 -3.8426845 -0.10385634 0 0 Z " fill="#C43D47" transform="translate(417,306)"/>
<path d="M0 0 C0.33 0 0.66 0 1 0 C1.144375 1.2375 1.28875 2.475 1.4375 3.75 C1.78688502 6.56504499 2.20379366 9.2701497 3 12 C1.35 11.67 -0.3 11.34 -2 11 C-1 3.57142857 -1 3.57142857 0 0 Z " fill="#F5DBD6" transform="translate(387,47)"/>
<path d="M0 0 C1.65 0 3.3 0 5 0 C5 0.66 5 1.32 5 2 C7.64 2.33 10.28 2.66 13 3 C13.33 3.99 13.66 4.98 14 6 C8.7415998 5.32584613 3.97361654 3.75734451 -1 2 C-0.67 1.34 -0.34 0.68 0 0 Z " fill="#E0232B" transform="translate(258,655)"/>
<path d="M0 0 C0.99 0 1.98 0 3 0 C3 1.65 3 3.3 3 5 C3.66 5 4.32 5 5 5 C5.33 6.32 5.66 7.64 6 9 C6.66 9 7.32 9 8 9 C7.67 10.65 7.34 12.3 7 14 C3.94998169 10.33997803 0 4.92148529 0 0 Z " fill="#FAD9D8" transform="translate(503,408)"/>
<path d="M0 0 C4.31996146 1.07999037 4.79477866 1.42964163 7 5 C7.33 5.99 7.66 6.98 8 8 C7.01 9.485 7.01 9.485 6 11 C4.02 7.37 2.04 3.74 0 0 Z " fill="#FAE1E0" transform="translate(496,397)"/>
<path d="M0 0 C0.66 0.33 1.32 0.66 2 1 C-7.90669014 7.11883803 -7.90669014 7.11883803 -11.875 6.6875 C-12.57625 6.460625 -13.2775 6.23375 -14 6 C-11.29721134 3.29721134 -8.66200412 2.99308586 -5 2 C-4.071875 1.608125 -3.14375 1.21625 -2.1875 0.8125 C-1.465625 0.544375 -0.74375 0.27625 0 0 Z " fill="#C04C51" transform="translate(402,340)"/>
<path d="M0 0 C1.875 0.5625 1.875 0.5625 4 2 C5.25 5.625 5.25 5.625 6 9 C4.68 9 3.36 9 2 9 C1.01 6.36 0.02 3.72 -1 1 C-0.67 0.67 -0.34 0.34 0 0 Z " fill="#F6DCD9" transform="translate(438,167)"/>
<path d="M0 0 C-1.13719419 3.41158256 -2.04342944 4.11854601 -5 6 C-5.66 6 -6.32 6 -7 6 C-7 6.66 -7 7.32 -7 8 C-8.65 8.66 -10.3 9.32 -12 10 C-11.67 9.01 -11.34 8.02 -11 7 C-10.01 7 -9.02 7 -8 7 C-7.938125 6.401875 -7.87625 5.80375 -7.8125 5.1875 C-6.54345853 1.77084988 -3.64481301 0 0 0 Z " fill="#F9DCDC" transform="translate(295,119)"/>
<path d="M0 0 C0.33 1.32 0.66 2.64 1 4 C1.66 4 2.32 4 3 4 C3 9.28 3 14.56 3 20 C2.67 20 2.34 20 2 20 C0.74158054 13.25846717 -0.26404456 6.86515862 0 0 Z " fill="#E0262E" transform="translate(163,515)"/>
<path d="M0 0 C0 3 0 3 -1 5 C-3.06640625 5.4140625 -3.06640625 5.4140625 -5.5625 5.625 C-6.38878906 5.69976562 -7.21507812 5.77453125 -8.06640625 5.8515625 C-9.02353516 5.92503906 -9.02353516 5.92503906 -10 6 C-9.34 4.35 -8.68 2.7 -8 1 C-7.34 1 -6.68 1 -6 1 C-6 1.66 -6 2.32 -6 3 C-4.02 2.01 -2.04 1.02 0 0 Z " fill="#FAF2F1" transform="translate(372,345)"/>
<path d="M0 0 C-2.7456007 2.7456007 -4.60894302 2.36189557 -8.4375 2.5625 C-13.30324732 2.82618357 -13.30324732 2.82618357 -18 4 C-18 3.01 -18 2.02 -18 1 C-15.37583048 0.63835477 -12.75099687 0.28538847 -10.125 -0.0625 C-9.37863281 -0.16626953 -8.63226563 -0.27003906 -7.86328125 -0.37695312 C-2.2265625 -1.11328125 -2.2265625 -1.11328125 0 0 Z " fill="#FEECEA" transform="translate(370,327)"/>
<path d="M0 0 C1.14926266 0.95421808 2.29430541 1.91352045 3.4375 2.875 C4.07558594 3.40867188 4.71367187 3.94234375 5.37109375 4.4921875 C7 6 7 6 8 8 C3.25 7.125 3.25 7.125 1 6 C1 5.01 1 4.02 1 3 C0.01 2.67 -0.98 2.34 -2 2 C-1.34 1.34 -0.68 0.68 0 0 Z " fill="#C73C45" transform="translate(398,126)"/>
<path d="M0 0 C0.99 0.33 1.98 0.66 3 1 C3.4021875 2.2375 3.4021875 2.2375 3.8125 3.5 C4.4003125 4.7375 4.4003125 4.7375 5 6 C7.94363898 6.67117848 7.94363898 6.67117848 11 7 C12.875 8.5625 12.875 8.5625 14 10 C12.68 10.33 11.36 10.66 10 11 C9.67 10.34 9.34 9.68 9 9 C8.01 9 7.02 9 6 9 C6 8.34 6 7.68 6 7 C5.01 6.67 4.02 6.34 3 6 C1.3125 2.9375 1.3125 2.9375 0 0 Z " fill="#D92B37" transform="translate(384,117)"/>
<path d="M0 0 C0.33 2.97 0.66 5.94 1 9 C-0.32 9.33 -1.64 9.66 -3 10 C-3 7.03 -3 4.06 -3 1 C-1 0 -1 0 0 0 Z " fill="#F9DCDC" transform="translate(527,513)"/>
<path d="M0 0 C0.33 0.66 0.66 1.32 1 2 C-0.21484375 4.8203125 -0.21484375 4.8203125 -1.9375 8.125 C-2.50339844 9.22070312 -3.06929687 10.31640625 -3.65234375 11.4453125 C-4.09707031 12.28835938 -4.54179687 13.13140625 -5 14 C-6.13583456 10.28272326 -5.66670026 8.52948291 -4 5 C-3.34 5 -2.68 5 -2 5 C-2 3.68 -2 2.36 -2 1 C-1.34 0.67 -0.68 0.34 0 0 Z " fill="#FBD9DA" transform="translate(182,407)"/>
<path d="M0 0 C4.51135667 2.19471406 6.06273348 4.41173718 8 9 C3.12314139 7.64531705 1.51407619 5.28324091 -1 1 C-0.67 0.67 -0.34 0.34 0 0 Z " fill="#CE2E3B" transform="translate(248,280)"/>
<path d="M0 0 C0.99 0.66 1.98 1.32 3 2 C0.03 4.97 -2.94 7.94 -6 11 C-6.66 10.34 -7.32 9.68 -8 9 C-6.71034824 7.62437146 -5.37310707 6.29233607 -4 5 C-3.34 5 -2.68 5 -2 5 C-1.34 3.35 -0.68 1.7 0 0 Z " fill="#FDEEEB" transform="translate(272,135)"/>
<path d="M0 0 C1.33333333 0.66666667 2.66666667 1.33333333 4 2 C5.0828125 2.4640625 5.0828125 2.4640625 6.1875 2.9375 C8 4 8 4 9 7 C10.99665314 8.68538601 10.99665314 8.68538601 13 10 C12.67 10.66 12.34 11.32 12 12 C9.99698881 10.19073245 7.99751914 8.377813 6 6.5625 C5.42765625 6.04623047 4.8553125 5.52996094 4.265625 4.99804688 C2.82480421 3.6858708 1.41014216 2.34509096 0 1 C0 0.67 0 0.34 0 0 Z " fill="#B4303A" transform="translate(211,623)"/>
<path d="M0 0 C0.66 0.33 1.32 0.66 2 1 C0.44499019 4.81684226 -2.03595495 7.19195732 -5 10 C-5.20086443 6.28400809 -5.1519437 5.22791555 -3 2 C-2.01 2 -1.02 2 0 2 C0 1.34 0 0.68 0 0 Z " fill="#F9E3E0" transform="translate(201,377)"/>
<path d="M0 0 C1.11375 0.86625 1.11375 0.86625 2.25 1.75 C2.25 2.74 2.25 3.73 2.25 4.75 C2.91 4.75 3.57 4.75 4.25 4.75 C3.92 5.41 3.59 6.07 3.25 6.75 C0.1401291 5.71337637 -0.56944676 5.01777536 -2.75 2.75 C-4.06963709 1.73199424 -5.40009646 0.72751635 -6.75 -0.25 C-3.83741863 -1.43660723 -2.93600309 -1.33454686 0 0 Z " fill="#F7DADB" transform="translate(438.75,337.25)"/>
<path d="M0 0 C3.3 0 6.6 0 10 0 C6.43688534 2.672336 4.15414253 3.77263971 0 5 C-0.66 4.01 -1.32 3.02 -2 2 C-1.34 2 -0.68 2 0 2 C0 1.34 0 0.68 0 0 Z " fill="#CB464A" transform="translate(396,313)"/>
<path d="M0 0 C0.33 0.99 0.66 1.98 1 3 C1.66 3 2.32 3 3 3 C3.77916092 8.02125926 4.13016601 11.97703996 3 17 C2.67 17 2.34 17 2 17 C1.66151348 15.10507994 1.32943089 13.20901534 1 11.3125 C0.814375 10.25675781 0.62875 9.20101562 0.4375 8.11328125 C0.04931926 5.35095938 -0.08259976 2.78257957 0 0 Z " fill="#F0C1C3" transform="translate(450,199)"/>
<path d="M0 0 C0.66 0 1.32 0 2 0 C2 0.99 2 1.98 2 3 C2.99 3 3.98 3 5 3 C5.66 6.3 6.32 9.6 7 13 C4.46930592 10.46930592 3.31623046 9.01985937 1.8125 5.9375 C1.29623047 4.89916016 1.29623047 4.89916016 0.76953125 3.83984375 C0 2 0 2 0 0 Z " fill="#B92D36" transform="translate(180,578)"/>
<path d="M0 0 C0.99 1.32 1.98 2.64 3 4 C1.7260411 6.03833424 0.38938077 8.03852126 -1 10 C-1.66 10 -2.32 10 -3 10 C-2.39009109 6.44219804 -1.4216319 3.3171411 0 0 Z " fill="#F8D4D4" transform="translate(513,562)"/>
<path d="M0 0 C0.33 0.66 0.66 1.32 1 2 C1.64453125 2.11214844 2.2890625 2.22429687 2.953125 2.33984375 C3.62859375 2.55769531 4.3040625 2.77554687 5 3 C6.046875 5.06640625 6.046875 5.06640625 6.75 7.5625 C6.99234375 8.38878906 7.2346875 9.21507812 7.484375 10.06640625 C7.65453125 10.70449219 7.8246875 11.34257812 8 12 C7.01 12 6.02 12 5 12 C4.80664062 11.43410156 4.61328125 10.86820312 4.4140625 10.28515625 C4.15367187 9.55167969 3.89328125 8.81820313 3.625 8.0625 C3.24214844 6.96615234 3.24214844 6.96615234 2.8515625 5.84765625 C2.14728587 3.81317884 2.14728587 3.81317884 0 3 C0 2.01 0 1.02 0 0 Z " fill="#C13237" transform="translate(508,426)"/>
<path d="M0 0 C2.97 0.99 5.94 1.98 9 3 C8.67 3.99 8.34 4.98 8 6 C4 6 4 6 1.75 4.125 C0 2 0 2 0 0 Z " fill="#F8EAED" transform="translate(284,316)"/>
<path d="M0 0 C3.0831351 1.19899698 6.06279492 2.47700477 9 4 C8.34 4 7.68 4 7 4 C7 5.65 7 7.3 7 9 C4.03595495 6.19195732 1.55500981 3.81684226 0 0 Z " fill="#FCEFED" transform="translate(431,159)"/>
<path d="M0 0 C-0.66 0 -1.32 0 -2 0 C-2.33 0.66 -2.66 1.32 -3 2 C-6.44450737 4.29633824 -8.93812283 4.54016485 -13 5 C-10.09360225 0.64040337 -5.20498689 -2.29019423 0 0 Z " fill="#F8DEDB" transform="translate(353,92)"/>
<path d="M0 0 C0.33 0 0.66 0 1 0 C1.875 2.6875 1.875 2.6875 2 6 C0.20703368 8.13500912 -1.67836428 9.38906909 -4 11 C-3.52269162 9.5410574 -3.04308958 8.08286504 -2.5625 6.625 C-2.29566406 5.81289063 -2.02882812 5.00078125 -1.75390625 4.1640625 C-1 2 -1 2 0 0 Z " fill="#DC2931" transform="translate(179,418)"/>
<path d="M0 0 C3.3 0.33 6.6 0.66 10 1 C10 1.66 10 2.32 10 3 C10.66 3 11.32 3 12 3 C11.34 4.32 10.68 5.64 10 7 C9.46375 6.38125 8.9275 5.7625 8.375 5.125 C5.68896977 2.7217098 3.44585438 1.93977847 0 1 C0 0.67 0 0.34 0 0 Z " fill="#DF282E" transform="translate(285,344)"/>
<path d="M0 0 C2.97 0 5.94 0 9 0 C9.33 1.65 9.66 3.3 10 5 C6.08788267 3.84414715 3.1254959 2.64465038 0 0 Z " fill="#EFD3D1" transform="translate(264,331)"/>
<path d="M0 0 C1.90318884 2.85478326 2.4619099 4.41941308 3.125 7.6875 C3.29257813 8.49574219 3.46015625 9.30398438 3.6328125 10.13671875 C3.75398437 10.75160156 3.87515625 11.36648438 4 12 C3.01 12 2.02 12 1 12 C0.855625 10.88625 0.71125 9.7725 0.5625 8.625 C0.21627965 5.17857953 0.21627965 5.17857953 -1 3 C-0.67 2.01 -0.34 1.02 0 0 Z " fill="#F5D2D2" transform="translate(236,256)"/>
<path d="M0 0 C0.33 0 0.66 0 1 0 C1.66 4.95 2.32 9.9 3 15 C2.34 15 1.68 15 1 15 C-1.32086397 9.675665 -0.91457003 5.56157448 0 0 Z " fill="#F4C8C5" transform="translate(233,240)"/>
<path d="M0 0 C0.99 0 1.98 0 3 0 C1.58192622 4.47238653 -0.11304374 8.71146306 -2 13 C-3.0625 11.125 -3.0625 11.125 -4 9 C-3.67 8.34 -3.34 7.68 -3 7 C-2.34 7 -1.68 7 -1 7 C-1 5.68 -1 4.36 -1 3 C-0.34 3 0.32 3 1 3 C0.67 2.01 0.34 1.02 0 0 Z " fill="#EFBFBA" transform="translate(243,173)"/>
<path d="M0 0 C3 3.75 3 3.75 3 6 C3.66 6 4.32 6 5 6 C5.33 7.98 5.66 9.96 6 12 C4.62437146 10.71034824 3.29233607 9.37310707 2 8 C2 7.34 2 6.68 2 6 C1.34 6 0.68 6 0 6 C0 4.02 0 2.04 0 0 Z " fill="#B92D31" transform="translate(437,170)"/>
<path d="M0 0 C0.33 1.32 0.66 2.64 1 4 C-0.32 4.33 -1.64 4.66 -3 5 C-3 5.66 -3 6.32 -3 7 C-3.99 7.66 -4.98 8.32 -6 9 C-6.99 8.67 -7.98 8.34 -9 8 C-3.25 3 -3.25 3 -1 3 C-0.67 2.01 -0.34 1.02 0 0 Z " fill="#C1474F" transform="translate(281,131)"/>
<path d="M0 0 C1.32 0 2.64 0 4 0 C4 0.66 4 1.32 4 2 C3.01 2 2.02 2 1 2 C1.33 3.32 1.66 4.64 2 6 C1.34 6 0.68 6 0 6 C0 5.34 0 4.68 0 4 C-1.98 4.66 -3.96 5.32 -6 6 C-4 4 -2 2 0 0 Z " fill="#E72832" transform="translate(307,112)"/>
<path d="M0 0 C1.46080933 0.61919078 2.91857455 1.24556692 4.375 1.875 C5.18710937 2.22304688 5.99921875 2.57109375 6.8359375 2.9296875 C9 4 9 4 11 6 C9.68 6.33 8.36 6.66 7 7 C7 6.34 7 5.68 7 5 C5.68 5 4.36 5 3 5 C1.25 3.625 1.25 3.625 0 2 C0 1.34 0 0.68 0 0 Z " fill="#C23F43" transform="translate(425,334)"/>
<path d="M0 0 C2.56616632 3.84924948 2.55097676 6.4349304 3 11 C1.68 10.67 0.36 10.34 -1 10 C-0.34 10 0.32 10 1 10 C0.4740625 8.63875 0.4740625 8.63875 -0.0625 7.25 C-0.96468779 4.12241564 -1.13381507 2.94791919 0 0 Z " fill="#FAECEA" transform="translate(353,16)"/>
<path d="M0 0 C2.64 1.65 5.28 3.3 8 5 C4.71023192 6.09658936 3.28696233 5.79953138 0 5 C-0.33 4.01 -0.66 3.02 -1 2 C-0.67 1.34 -0.34 0.68 0 0 Z " fill="#F6D5D0" transform="translate(229,640)"/>
<path d="M0 0 C0.66 0.33 1.32 0.66 2 1 C0.12050295 4.57104439 -1.17053157 6.54744301 -5 8 C-5.66 7.34 -6.32 6.68 -7 6 C-6.401875 5.7525 -5.80375 5.505 -5.1875 5.25 C-2.71352479 3.83629988 -1.56629745 2.34944617 0 0 Z " fill="#CC2835" transform="translate(479,614)"/>
<path d="M0 0 C0.66 0 1.32 0 2 0 C1.27991594 4.60853797 -0.31295939 8.67237409 -2 13 C-2.33 13 -2.66 13 -3 13 C-2.45144652 8.428721 -1.58255197 4.32564205 0 0 Z " fill="#B92C36" transform="translate(512,559)"/>
<path d="M0 0 C2 3 2 3 1.3125 6.5625 C0 10 0 10 -3 12 C-2.68950274 10.56206608 -2.3765224 9.1246682 -2.0625 7.6875 C-1.88847656 6.88699219 -1.71445312 6.08648438 -1.53515625 5.26171875 C-1 3 -1 3 0 0 Z " fill="#F6CAC9" transform="translate(517,550)"/>
<path d="M0 0 C3.63 0.66 7.26 1.32 11 2 C8 4 8 4 4.9375 3.6875 C2 3 2 3 0 2 C0 1.34 0 0.68 0 0 Z " fill="#C84F52" transform="translate(298,346)"/>
<path d="M0 0 C-0.33 1.65 -0.66 3.3 -1 5 C-1.5775 4.814375 -2.155 4.62875 -2.75 4.4375 C-5.20692525 3.95976454 -6.64397534 4.24270636 -9 5 C-4.16129032 0 -4.16129032 0 0 0 Z " fill="#C94149" transform="translate(249,341)"/>
<path d="M0 0 C0 0.66 0 1.32 0 2 C-0.94875 2.12375 -1.8975 2.2475 -2.875 2.375 C-6.08667191 2.71687177 -6.08667191 2.71687177 -8 5 C-8.66 4.34 -9.32 3.68 -10 3 C-6.68152292 -0.06320961 -4.44849969 -0.3033068 0 0 Z " fill="#D72933" transform="translate(412,339)"/>
<path d="M0 0 C0.99 0.33 1.98 0.66 3 1 C4.125 4 4.125 4 5 7 C5.33 7.33 5.66 7.66 6 8 C6.04063832 9.66617115 6.042721 11.33388095 6 13 C2.57068046 9.2440786 1.43570917 4.76533255 0 0 Z " fill="#BA363D" transform="translate(238,261)"/>
<path d="M0 0 C2.0625 0.4375 2.0625 0.4375 4 1 C3.34 1 2.68 1 2 1 C2 1.66 2 2.32 2 3 C0.34997172 4.35386936 -1.3174387 5.68678142 -3 7 C-3.33 7.66 -3.66 8.32 -4 9 C-4.66 9 -5.32 9 -6 9 C-6 6 -6 6 -3.5625 3.375 C-2.716875 2.59125 -1.87125 1.8075 -1 1 C-0.67 0.67 -0.34 0.34 0 0 Z " fill="#F8DCD9" transform="translate(330,83)"/>
<path d="M0 0 C0.99 0.33 1.98 0.66 3 1 C-2.75 6 -2.75 6 -5 6 C-5.33 5.01 -5.66 4.02 -6 3 C-5 2 -5 2 -2.4375 1.9375 C-1.2309375 1.9684375 -1.2309375 1.9684375 0 2 C0 1.34 0 0.68 0 0 Z " fill="#C32B32" transform="translate(369,74)"/>
<path d="M0 0 C2.97 1.65 5.94 3.3 9 5 C7.02 5.99 7.02 5.99 5 7 C4.54625 6.505 4.0925 6.01 3.625 5.5 C2.12364481 3.77390663 2.12364481 3.77390663 0 4 C0 2.68 0 1.36 0 0 Z " fill="#F8D2D2" transform="translate(240,648)"/>
<path d="M0 0 C2.64465038 3.1254959 3.84414715 6.08788267 5 10 C2.525 9.01 2.525 9.01 0 8 C0 5.36 0 2.72 0 0 Z " fill="#F5CDCB" transform="translate(178,576)"/>
<path d="M0 0 C0.99 0 1.98 0 3 0 C2.67 1.65 2.34 3.3 2 5 C0.68 5.33 -0.64 5.66 -2 6 C-2 6.66 -2 7.32 -2 8 C-2.66 7.67 -3.32 7.34 -4 7 C-2.68 4.69 -1.36 2.38 0 0 Z " fill="#DF2631" transform="translate(201,382)"/>
<path d="M0 0 C0.33 0.66 0.66 1.32 1 2 C0.06833174 4.03273074 -0.9349985 6.03384339 -2 8 C-2.33 8.66 -2.66 9.32 -3 10 C-4.32 9.67 -5.64 9.34 -7 9 C-4.69 6.03 -2.38 3.06 0 0 Z " fill="#BC3B45" transform="translate(200,382)"/>
<path d="M0 0 C0.66 0.66 1.32 1.32 2 2 C-1.465 4.97 -1.465 4.97 -5 8 C-5 6.02 -5 4.04 -5 2 C-4.360625 1.855625 -3.72125 1.71125 -3.0625 1.5625 C-1.02454854 1.18992819 -1.02454854 1.18992819 0 0 Z " fill="#FDE6EB" transform="translate(209,369)"/>
<path d="M0 0 C0.66 0.33 1.32 0.66 2 1 C1.375 2.9375 1.375 2.9375 0 5 C-3.125 5.75 -3.125 5.75 -6 6 C-4 4 -2 2 0 0 Z " fill="#C14348" transform="translate(229,353)"/>
<path d="M0 0 C2.31 0.33 4.62 0.66 7 1 C7.66 2.98 8.32 4.96 9 7 C5.18315774 5.44499019 2.80804268 2.96404505 0 0 Z " fill="#FCE5E0" transform="translate(456,353)"/>
<path d="M0 0 C3.3 0 6.6 0 10 0 C6 3 6 3 2.25 2.6875 C1.1775 2.460625 0.105 2.23375 -1 2 C-0.67 1.34 -0.34 0.68 0 0 Z " fill="#D3262C" transform="translate(362,323)"/>
<path d="M0 0 C0.33 1.32 0.66 2.64 1 4 C0.01 4.495 0.01 4.495 -1 5 C-1 5.66 -1 6.32 -1 7 C-1.66 7 -2.32 7 -3 7 C-3.66 8.32 -4.32 9.64 -5 11 C-5 7 -5 7 -3 4 C-2.34 4 -1.68 4 -1 4 C-0.67 2.68 -0.34 1.36 0 0 Z " fill="#C1373D" transform="translate(265,146)"/>
<path d="M0 0 C2.64 0.33 5.28 0.66 8 1 C7.67 1.99 7.34 2.98 7 4 C7 4.99 7 5.98 7 7 C5.83040013 6.02433888 4.66438823 5.044375 3.5 4.0625 C2.8503125 3.51722656 2.200625 2.97195312 1.53125 2.41015625 C1.0259375 1.94480469 0.520625 1.47945312 0 1 C0 0.67 0 0.34 0 0 Z " fill="#F6DDDC" transform="translate(412,138)"/>
<path d="M0 0 C0.66 0.66 1.32 1.32 2 2 C0 5 0 5 -2.625 5.6875 C-3.800625 5.8421875 -3.800625 5.8421875 -5 6 C-4.67 4.35 -4.34 2.7 -4 1 C-2.125 0.375 -2.125 0.375 0 0 Z " fill="#F9F5F4" transform="translate(356,89)"/>
<path d="M0 0 C0 0.66 0 1.32 0 2 C-4.455 3.485 -4.455 3.485 -9 5 C-9.33 4.34 -9.66 3.68 -10 3 C-9.01 3 -8.02 3 -7 3 C-7 2.34 -7 1.68 -7 1 C-4 0 -4 0 0 0 Z " fill="#BF444D" transform="translate(423,659)"/>
<path d="M0 0 C2.6855594 2.6855594 3.06049974 5.37621328 4 9 C3.01 8.67 2.02 8.34 1 8 C0.67 8.66 0.34 9.32 0 10 C0 6.66666667 0 3.33333333 0 0 Z " fill="#F8D2D2" transform="translate(172,563)"/>
<path d="M0 0 C2.475 0.99 2.475 0.99 5 2 C3.25 6.875 3.25 6.875 1 8 C0.67 5.36 0.34 2.72 0 0 Z " fill="#F9E6E4" transform="translate(186,392)"/>
<path d="M0 0 C0.33 0.66 0.66 1.32 1 2 C2.64363134 2.72159424 4.31050386 3.39351421 6 4 C6 4.33 6 4.66 6 5 C2.14354879 5.22036864 -0.49223216 4.60355101 -4 3 C-3 1 -3 1 0 0 Z " fill="#F3D7D5" transform="translate(309,345)"/>
<path d="M0 0 C4.95 1.98 4.95 1.98 10 4 C9.01 4.66 8.02 5.32 7 6 C7 5.34 7 4.68 7 4 C5.35 4.33 3.7 4.66 2 5 C1.34 3.35 0.68 1.7 0 0 Z " fill="#F7D4D2" transform="translate(256,657)"/>
<path d="M0 0 C1.32 0.33 2.64 0.66 4 1 C3.67 3.64 3.34 6.28 3 9 C0.87491756 5.81237635 0.4979837 3.73487777 0 0 Z " fill="#F9DCD9" transform="translate(515,434)"/>
<path d="M0 0 C0.66 0.33 1.32 0.66 2 1 C0.70700306 3.88437779 -0.65941363 5.87219421 -3 8 C-3.33 7.34 -3.66 6.68 -4 6 C-2.68 4.02 -1.36 2.04 0 0 Z " fill="#F9E3DF" transform="translate(194,386)"/>
<path d="M0 0 C1.32 0.33 2.64 0.66 4 1 C1.36 2.98 -1.28 4.96 -4 7 C-4 6.01 -4 5.02 -4 4 C-3.01 3.67 -2.02 3.34 -1 3 C-0.67 2.01 -0.34 1.02 0 0 Z " fill="#FDE3E0" transform="translate(229,350)"/>
<path d="M0 0 C2.31 0 4.62 0 7 0 C4.64722731 2.72426311 2.37503669 3.8141763 -1 5 C-0.67 3.35 -0.34 1.7 0 0 Z " fill="#FCE8E8" transform="translate(247,336)"/>
<path d="M0 0 C1 2 2 4 3 6 C2.01 6 1.02 6 0 6 C0.33 6.99 0.66 7.98 1 9 C0.01 9.66 -0.98 10.32 -2 11 C-1 3.57142857 -1 3.57142857 0 0 Z " fill="#F5C8CE" transform="translate(450,251)"/>
<path d="M0 0 C0.33 0.66 0.66 1.32 1 2 C3.01669827 3.13350534 3.01669827 3.13350534 5 4 C4.67 5.98 4.34 7.96 4 10 C0 4 0 4 0 0 Z " fill="#EEBDBC" transform="translate(442,177)"/>
<path d="M0 0 C0.66 0.99 1.32 1.98 2 3 C0.625 6.6875 0.625 6.6875 -1 10 C-1.99 9.67 -2.98 9.34 -4 9 C-2.80100302 5.9168649 -1.52299523 2.93720508 0 0 Z " fill="#E02731" transform="translate(245,178)"/>
<path d="M0 0 C2.475 0.495 2.475 0.495 5 1 C5.33 1.99 5.66 2.98 6 4 C5.01 4.66 4.02 5.32 3 6 C2.34 5.67 1.68 5.34 1 5 C0.375 2.4375 0.375 2.4375 0 0 Z " fill="#F4D9D9" transform="translate(386,18)"/>
<path d="M0 0 C-3.82517513 2.39073445 -7.59665524 2.55966552 -12 3 C-8.2699487 -0.7300513 -5.02945658 -1.43698759 0 0 Z " fill="#DA2931" transform="translate(396,666)"/>
<path d="M0 0 C0.66 0 1.32 0 2 0 C2 0.66 2 1.32 2 2 C2.99 2.33 3.98 2.66 5 3 C5 4.65 5 6.3 5 8 C2.20127563 5.47211993 0.54226981 3.79588866 0 0 Z " fill="#C72C32" transform="translate(206,615)"/>
<path d="M0 0 C0.33 0.66 0.66 1.32 1 2 C1.66 2.33 2.32 2.66 3 3 C1.71034824 4.37562854 0.37310707 5.70766393 -1 7 C-1.66 7 -2.32 7 -3 7 C-2.38722388 4.03824877 -1.74627478 2.61941217 0 0 Z " fill="#F4D3D3" transform="translate(493,600)"/>
<path d="M0 0 C0.33 0 0.66 0 1 0 C1.3125 2.3125 1.3125 2.3125 1 5 C-1.5 6.8125 -1.5 6.8125 -4 8 C-3.67 6.35 -3.34 4.7 -3 3 C-2.34 3 -1.68 3 -1 3 C-0.67 2.01 -0.34 1.02 0 0 Z " fill="#E1282F" transform="translate(517,543)"/>
<path d="M0 0 C1.32 0.33 2.64 0.66 4 1 C5.3125 3.375 5.3125 3.375 6 6 C5.67 6.99 5.34 7.98 5 9 C3.35 6.03 1.7 3.06 0 0 Z " fill="#FBD6D9" transform="translate(490,388)"/>
<path d="M0 0 C0.86625 0.556875 0.86625 0.556875 1.75 1.125 C-1.6852048 3.41513653 -3.235331 3.30342973 -7.25 3.125 C-5.61609754 -0.14280491 -3.47460528 -1.35123539 0 0 Z " fill="#F6E0DE" transform="translate(397.25,340.875)"/>
<path d="M0 0 C0 0.66 0 1.32 0 2 C-2.90092502 3.93395001 -3.89674737 4.30131941 -7.1875 4.625 C-8.445625 4.74875 -9.70375 4.8725 -11 5 C-9.70976282 2.41952564 -8.72910609 2.32977036 -6.0625 1.375 C-5.35222656 1.11460937 -4.64195312 0.85421875 -3.91015625 0.5859375 C-2 0 -2 0 0 0 Z " fill="#C5575A" transform="translate(415,335)"/>
<path d="M0 0 C0.928125 0.515625 1.85625 1.03125 2.8125 1.5625 C2.8125 1.8925 2.8125 2.2225 2.8125 2.5625 C-3.9375 2.6875 -3.9375 2.6875 -6.1875 1.5625 C-6.1875 0.9025 -6.1875 0.2425 -6.1875 -0.4375 C-3.1875 -1.4375 -3.1875 -1.4375 0 0 Z " fill="#C7383D" transform="translate(292.1875,315.4375)"/>
<path d="M0 0 C0.33 0.66 0.66 1.32 1 2 C1.66 2.33 2.32 2.66 3 3 C0.42215154 5.64752004 -1.91648098 7.94432065 -5 10 C-3.66511872 6.40608886 -2.03977277 3.24509304 0 0 Z " fill="#B63338" transform="translate(254,160)"/>
<path d="M0 0 C0.33 0 0.66 0 1 0 C1 1.65 1 3.3 1 5 C-0.98 5.33 -2.96 5.66 -5 6 C-3.35830472 3.97945196 -1.69088222 1.97956942 0 0 Z " fill="#C64A4A" transform="translate(271,140)"/>
<path d="M0 0 C0.33 1.32 0.66 2.64 1 4 C-1.475 5.485 -1.475 5.485 -4 7 C-3.6875 4.625 -3.6875 4.625 -3 2 C-2.01 1.34 -1.02 0.68 0 0 Z " fill="#C63E45" transform="translate(286,127)"/>
<path d="M0 0 C0.66 0 1.32 0 2 0 C2.66 1.32 3.32 2.64 4 4 C1.69 4.33 -0.62 4.66 -3 5 C-1.125 1.125 -1.125 1.125 0 0 Z " fill="#C33D3D" transform="translate(324,92)"/>
<path d="M0 0 C0.33 0 0.66 0 1 0 C1.22174933 1.45635371 1.42698698 2.91522956 1.625 4.375 C1.74101562 5.18710937 1.85703125 5.99921875 1.9765625 6.8359375 C1.98429687 7.55007812 1.99203125 8.26421875 2 9 C1.34 9.66 0.68 10.32 0 11 C-1.05404945 7.01803543 -0.84098656 4.01804691 0 0 Z " fill="#CF5C64" transform="translate(356,37)"/>
<path d="M0 0 C2.7972908 2.06756277 3.02692273 3.14440371 3.6875 6.6875 C3.790625 7.780625 3.89375 8.87375 4 10 C1 8 1 8 0.48828125 6.0546875 C0.32552083 4.03645833 0.16276042 2.01822917 0 0 Z " fill="#E32634" transform="translate(383,18)"/>
<path d="M0 0 C-3 2 -3 2 -7 2 C-7 2.66 -7 3.32 -7 4 C-7.99 4 -8.98 4 -10 4 C-10 3.01 -10 2.02 -10 1 C-6.61981469 -0.04005702 -3.5219721 -0.08004482 0 0 Z " fill="#D9252F" transform="translate(430,655)"/>
<path d="M0 0 C1 2 1 2 0.375 4.0625 C-1 6 -1 6 -3.625 6.75 C-4.800625 6.87375 -4.800625 6.87375 -6 7 C-4.02 4.69 -2.04 2.38 0 0 Z " fill="#F5D4D1" transform="translate(465,632)"/>
<path d="M0 0 C1.5625 1.25 1.5625 1.25 3 3 C2.6875 5.1875 2.6875 5.1875 2 7 C0.68 7.33 -0.64 7.66 -2 8 C-1.34 5.36 -0.68 2.72 0 0 Z " fill="#F6DCDB" transform="translate(197,607)"/>
<path d="M0 0 C2.72426311 2.35277269 3.8141763 4.62496331 5 8 C3.68 7.67 2.36 7.34 1 7 C0.67 4.69 0.34 2.38 0 0 Z " fill="#F6CFCD" transform="translate(187,593)"/>
<path d="M0 0 C3.2542015 2.83430453 4.5206753 4.68607774 5 9 C1.7457985 6.16569547 0.4793247 4.31392226 0 0 Z " fill="#DC2432" transform="translate(185,584)"/>
<path d="M0 0 C0.33 0 0.66 0 1 0 C1.08096803 1.45742463 1.13917774 2.91612807 1.1875 4.375 C1.22230469 5.18710937 1.25710938 5.99921875 1.29296875 6.8359375 C1.19628906 7.55007813 1.09960938 8.26421875 1 9 C0.01 9.66 -0.98 10.32 -2 11 C-1.34 7.37 -0.68 3.74 0 0 Z " fill="#F7C5C8" transform="translate(520,539)"/>
<path d="M0 0 C0.33 0 0.66 0 1 0 C2.125 7.625 2.125 7.625 1 11 C0.34 11 -0.32 11 -1 11 C-0.67 7.37 -0.34 3.74 0 0 Z " fill="#F7C5C9" transform="translate(523,523)"/>
<path d="M0 0 C2.475 0.99 2.475 0.99 5 2 C5 2.66 5 3.32 5 4 C6.32 4.33 7.64 4.66 9 5 C7.68 5 6.36 5 5 5 C4.67 5.66 4.34 6.32 4 7 C3.67 5.35 3.34 3.7 3 2 C2.01 1.67 1.02 1.34 0 1 C0 0.67 0 0.34 0 0 Z " fill="#E52731" transform="translate(423,335)"/>
<path d="M0 0 C0.66 0 1.32 0 2 0 C2 0.66 2 1.32 2 2 C2.66 2.33 3.32 2.66 4 3 C2.02 3.66 0.04 4.32 -2 5 C-2.33 4.34 -2.66 3.68 -3 3 C-2.34 3 -1.68 3 -1 3 C-0.67 2.01 -0.34 1.02 0 0 Z " fill="#F9E2E1" transform="translate(413,331)"/>
<path d="M0 0 C0 0.66 0 1.32 0 2 C-4.455 2.495 -4.455 2.495 -9 3 C-7.14340032 -0.71319936 -3.69365381 -0.09982848 0 0 Z " fill="#C24D53" transform="translate(377,323)"/>
<path d="M0 0 C0.33 0 0.66 0 1 0 C1.25532751 3.06393013 1.21861333 4.63233212 -0.375 7.3125 C-1.179375 8.1478125 -1.179375 8.1478125 -2 9 C-2.66 9 -3.32 9 -4 9 C-2.80100302 5.9168649 -1.52299523 2.93720508 0 0 Z " fill="#F9D3D1" transform="translate(443,272)"/>
<path d="M0 0 C-0.66 2.97 -1.32 5.94 -2 9 C-2.33 9 -2.66 9 -3 9 C-3.33 6.36 -3.66 3.72 -4 1 C-2 0 -2 0 0 0 Z " fill="#F3C9C7" transform="translate(240,186)"/>
<path d="M0 0 C-3.63423209 2.32590854 -6.77088331 2.16265833 -11 2 C-8.74490247 -2.51019507 -4.15738698 -0.70597137 0 0 Z " fill="#FDDCDA" transform="translate(365,113)"/>
<path d="M0 0 C0.66 0 1.32 0 2 0 C2 1.65 2 3.3 2 5 C0.02 5 -1.96 5 -4 5 C-2.71937515 3.2925002 -1.38232443 1.62626404 0 0 Z " fill="#F6D4CC" transform="translate(470,627)"/>
<path d="M0 0 C1.98 0.495 1.98 0.495 4 1 C4 2.98 4 4.96 4 7 C2.35 5.35 0.7 3.7 -1 2 C-0.67 1.34 -0.34 0.68 0 0 Z " fill="#F9E3DE" transform="translate(476,369)"/>
<path d="M0 0 C1.98 0 3.96 0 6 0 C6.33 1.32 6.66 2.64 7 4 C4.69 3.01 2.38 2.02 0 1 C0 0.67 0 0.34 0 0 Z " fill="#F8DFDA" transform="translate(425,333)"/>
<path d="M0 0 C0 0.33 0 0.66 0 1 C-2.31 1.33 -4.62 1.66 -7 2 C-7.33 1.01 -7.66 0.02 -8 -1 C-4.59745511 -2.2151946 -3.06748874 -1.86240388 0 0 Z " fill="#FAF4F0" transform="translate(269,330)"/>
<path d="M0 0 C1.04449911 3.13349732 0.93423645 3.98968256 0 7 C-1.32 7.33 -2.64 7.66 -4 8 C-2.87548273 5.0280615 -1.77706209 2.66559313 0 0 Z " fill="#F8D5D3" transform="translate(438,281)"/>
<path d="M0 0 C1.98 0.66 3.96 1.32 6 2 C5.67 2.99 5.34 3.98 5 5 C3.0625 4.1875 3.0625 4.1875 1 3 C0.67 2.01 0.34 1.02 0 0 Z " fill="#F3D0CF" transform="translate(424,151)"/>
<path d="M0 0 C4.75 0.75 4.75 0.75 7 3 C6.67 3.66 6.34 4.32 6 5 C2.83884224 3.63016497 2.0072908 3.0109362 0 0 Z " fill="#F3CDCA" transform="translate(392,121)"/>
</svg>
